<?xml version="1.0" encoding="UTF-8" standalone="no"?>
<!-- Created with Inkscape (http://www.inkscape.org/) -->

<svg
   width="1475.1014"
   height="573.59644"
   viewBox="0 0 390.28725 151.76405"
   version="1.1"
   id="svg1"
   xml:space="preserve"
   inkscape:version="1.3.2 (091e20e, 2023-11-25, custom)"
   sodipodi:docname="Banner.svg"
   inkscape:export-filename="Ascii_Web_Elements\ThinkerToy_Button.svg"
   inkscape:export-xdpi="96"
   inkscape:export-ydpi="96"
   xmlns:inkscape="http://www.inkscape.org/namespaces/inkscape"
   xmlns:sodipodi="http://sodipodi.sourceforge.net/DTD/sodipodi-0.dtd"
   xmlns:xlink="http://www.w3.org/1999/xlink"
   xmlns="http://www.w3.org/2000/svg"
   xmlns:svg="http://www.w3.org/2000/svg"><sodipodi:namedview
     id="namedview1"
     pagecolor="#505050"
     bordercolor="#eeeeee"
     borderopacity="1"
     inkscape:showpageshadow="0"
     inkscape:pageopacity="0"
     inkscape:pagecheckerboard="0"
     inkscape:deskcolor="#505050"
     inkscape:document-units="mm"
     inkscape:zoom="0.67954657"
     inkscape:cx="-254.58152"
     inkscape:cy="691.63766"
     inkscape:window-width="1350"
     inkscape:window-height="720"
     inkscape:window-x="0"
     inkscape:window-y="0"
     inkscape:window-maximized="0"
     inkscape:current-layer="layer1"><inkscape:page
       x="0"
       y="0"
       width="390.28726"
       height="151.76405"
       id="page2"
       margin="0"
       bleed="0" /></sodipodi:namedview><defs
     id="defs1"><linearGradient
       id="linearGradient12"
       x1="0"
       y1="318.51001"
       x2="1826.86"
       y2="318.51001"
       gradientUnits="userSpaceOnUse"><stop
         offset="0"
         stop-color="#ff7bac"
         id="stop11" /><stop
         offset="0.57999998"
         stop-color="#3a62a8"
         stop-opacity=".8"
         id="stop12"
         style="stop-color:#cdd9ee;stop-opacity:0.80000001;" /></linearGradient><linearGradient
       id="d"
       x1="0"
       y1="318.51001"
       x2="1826.86"
       y2="318.51001"
       gradientUnits="userSpaceOnUse"><stop
         offset="0"
         stop-color="#ff7bac"
         id="stop1" /><stop
         offset=".58"
         stop-color="#3a62a8"
         stop-opacity=".8"
         id="stop2" /></linearGradient><style
       id="style1">.e{fill:#662d91;}.f{fill:#0071bc;}.g{fill:url(#d);}.h{fill:#93278f;}.i{opacity:.77;}.j{font-family:Consolas, Consolas;font-size:31px;}</style><style
       id="style1-2">.e,.f,.g{font-family:Consolas, Consolas;}.h{fill:#662d91;}.i{fill:#0071bc;}.j{fill:url(#d);}.f,.k{fill:#fff;}.f,.k,.g{font-size:31px;}.l{font-family:Calibri-Light, Calibri;}.m{fill:#93278f;}.n{opacity:.77;}</style><style
       id="style1-6">.e,.f,.g{font-family:Consolas, Consolas;}.h{fill:#662d91;}.i{fill:#0071bc;}.j{fill:url(#d);}.f,.k{fill:#fff;}.f,.k,.g{font-size:31px;}.l{font-family:Calibri-Light, Calibri;}.m{fill:#93278f;}.n{opacity:.77;}</style><style
       id="style1-4">.e{fill:#662d91;}.f{fill:#0071bc;}.g{fill:url(#d);}.h{fill:#93278f;}.i{opacity:.77;}.j{font-family:Consolas, Consolas;font-size:31px;}</style><linearGradient
       inkscape:collect="always"
       xlink:href="#d"
       id="linearGradient39"
       gradientUnits="userSpaceOnUse"
       x1="0"
       y1="318.51001"
       x2="1826.86"
       y2="318.51001"
       gradientTransform="matrix(0.20357177,0,0,0.19933286,72.297695,25.58492)" /><style
       id="style1-5">.cls-1{fill:#101010;}</style><linearGradient
       inkscape:collect="always"
       xlink:href="#linearGradient12"
       id="linearGradient11"
       x1="248.82887"
       y1="200.12651"
       x2="438.22177"
       y2="200.12651"
       gradientUnits="userSpaceOnUse" /></defs><g
     id="layer1"
     inkscape:groupmode="layer"
     inkscape:label="Layer 1"
     transform="translate(-72.297695,-25.58492)"><g
       id="g12"><rect
         y="25.584921"
         width="371.89713"
         height="125.22202"
         rx="8.3220139"
         ry="8.0359735"
         id="rect9"
         x="72.297699"
         style="opacity:0.77;stroke-width:0.200043" /><path
         class="o"
         d="m 435.8728,26.182919 c 4.25262,0 7.7113,3.386665 7.7113,7.550728 V 144.4152 c 0,4.16407 -3.45868,7.55073 -7.7113,7.55073 H 80.619709 c -4.252614,0 -7.711299,-3.38666 -7.711299,-7.55073 V 33.733647 c 0,-4.164063 3.458685,-7.550728 7.711299,-7.550728 H 435.8728 m 0,-0.597999 H 80.619709 c -4.596651,0 -8.322014,3.647791 -8.322014,8.148727 V 144.4152 c 0,4.49895 3.725363,8.14873 8.322014,8.14873 H 435.8728 c 4.59666,0 8.32202,-3.64779 8.32202,-8.14873 V 33.733647 c 0,-4.500936 -3.72536,-8.148727 -8.32202,-8.148727 z"
         id="path9"
         style="opacity:0.77;fill:url(#linearGradient39);stroke-width:0.201442" /><text
         class="h"
         id="text13"
         style="font-size:5.41243px;font-family:Consolas, Consolas;display:inline;fill:#ffffff;stroke-width:0.174595"
         x="77.741608"
         y="47.905972"
         transform="scale(1.0261465,0.97451973)"><tspan
           x="77.741608"
           y="47.905972"
           id="tspan13"
           style="stroke-width:0.174595">$ cd ZONE01/OUJDA/ASCII-ART-WEB</tspan></text><text
         class="h"
         id="text17"
         style="font-size:5.41243px;font-family:Consolas, Consolas;fill:#ffffff;stroke-width:0.174595"
         x="77.741608"
         y="66.569702"
         transform="scale(1.0261465,0.97451973)"><tspan
           x="77.741608"
           y="66.569702"
           id="tspan17"
           style="stroke-width:0.174595">$ go run . “ASCII ART<tspan
   style="font-style:normal;font-variant:normal;font-weight:normal;font-stretch:normal;font-size:5.41243px;font-family:Consolas, Consolas;-inkscape-font-specification:'Consolas, Consolas, Normal';font-variant-ligatures:normal;font-variant-caps:normal;font-variant-numeric:normal;font-variant-east-asian:normal;font-feature-settings:'case';stroke-width:0.174595"
   id="tspan67">”</tspan> standard</tspan></text><path
         d="m 286.92514,190.87456 q 0,0.52774 -3.56225,4.51878 -3.99103,4.41983 -10.32392,7.88312 l -1.64919,3.00153 q -4.4858,8.27893 -10.06006,12.76473 -5.34337,4.32087 -9.23546,4.32087 -1.4183,0 -2.34185,-0.85758 -0.92354,-0.85758 -0.92354,-2.11096 0,-6.76168 15.27149,-13.72125 3.29838,-1.51726 4.25491,-2.045 l 5.60724,-10.32393 q -3.6612,4.84862 -5.17845,6.26692 -1.48427,1.38532 -3.06749,1.38532 -1.71516,0 -2.93556,-1.51725 -1.18742,-1.51725 -1.18742,-3.69418 0,-5.7062 7.45434,-10.35691 4.98055,-3.10048 7.81716,-3.10048 1.97903,0 1.97903,2.17693 0,0.59371 -0.29686,1.4183 l 1.84709,-3.33136 q 0.89057,0.23089 1.55024,0.23089 0.85758,0 2.50677,-0.23089 -0.23089,0.29685 -2.90257,4.94757 l -8.17998,14.11706 q 4.32087,-2.4408 6.89361,-4.71668 2.60572,-2.27588 5.87111,-6.56378 0.49476,-0.65967 0.65968,-0.65967 0.13193,0.033 0.13193,0.1979 z m -8.44385,-5.40934 q 0,-1.68217 -1.6162,-1.68217 -2.96854,0 -7.88313,5.93708 -4.8816,5.9041 -4.8816,9.53231 0,2.20992 1.91306,2.20992 1.94605,0 6.59676,-5.87112 5.87111,-7.42135 5.87111,-10.12602 z m -10.45586,19.7243 q -0.62669,0.36283 -3.72717,1.88008 -15.0406,7.45434 -15.0406,13.39142 0,1.0225 0.75862,1.71516 0.75863,0.69265 1.94605,0.69265 3.62822,0 7.05853,-3.72716 3.43031,-3.69419 8.60877,-13.29247 z m 35.58951,-14.31496 q 0,0.099 -0.59371,0.85758 l -1.4183,1.78112 q -6.82764,8.44385 -11.70925,8.44385 -2.30886,0 -3.89208,-1.64919 -1.55024,-1.68217 -1.55024,-4.18894 0,-5.93708 8.27893,-10.45586 4.35386,-2.37483 7.09151,-2.37483 1.18742,0 2.01202,0.72564 0.85757,0.69266 0.85757,1.71516 0,2.37483 -3.10047,4.05701 -3.10048,1.64919 -10.35691,3.10047 -2.2429,3.39733 -2.2429,5.67321 0,2.83661 3.06749,2.83661 5.21144,0 12.76473,-10.19199 0.3958,-0.52774 0.65967,-0.52774 0.13194,0.033 0.13194,0.1979 z m -2.77064,-6.102 q 0,-1.05548 -1.15443,-1.05548 -1.74814,0 -4.61773,2.4408 -2.83661,2.40782 -5.57426,6.26692 4.74966,-1.2204 8.04804,-3.43031 3.29838,-2.2429 3.29838,-4.22193 z m 29.19066,6.102 q 0,0.69266 -4.78265,6.39886 -3.92507,4.68369 -6.16797,4.68369 -1.48427,0 -2.50677,-1.15443 -0.98951,-1.15443 -0.98951,-2.8366 0,-1.48428 0.59371,-2.73766 0.62669,-1.28637 3.19942,-5.04652 2.67169,-3.95805 2.67169,-5.04652 0,-1.35233 -1.4183,-1.35233 -4.81564,0 -14.84271,17.87721 -1.6162,-0.13194 -1.94604,-0.13194 -1.15443,0 -2.17693,0.13194 l 5.14547,-8.147 q 4.38684,-6.99256 4.38684,-8.7407 0,-0.98951 -0.82459,-0.98951 -1.68217,0 -6.62974,7.09151 -0.29686,0.42879 -0.46178,0.46177 -0.16491,0 -0.1979,-0.1979 0.033,-0.16492 0.13194,-0.26387 l 0.62669,-0.82459 q 5.04652,-6.76168 6.79466,-6.76168 1.12145,0 1.91306,1.0225 0.79161,1.02249 0.79161,2.4408 0,2.11096 -2.47378,5.87111 3.89208,-5.37636 5.97006,-7.35538 2.11096,-1.97903 3.89209,-1.97903 1.45128,0 2.4408,1.18742 0.98951,1.18741 0.98951,2.93555 0,2.20992 -3.03451,6.76168 -3.10047,4.65071 -3.10047,5.93708 0,1.35234 1.35233,1.35234 2.93556,0 10.12603,-10.45586 0.16491,-0.32984 0.32983,-0.32984 0.19791,0 0.19791,0.1979 z m 16.62382,0 q 0,0.099 -0.5937,0.85758 l -1.41831,1.78112 q -6.82764,8.44385 -11.70924,8.44385 -2.30887,0 -3.89209,-1.64919 -1.55024,-1.68217 -1.55024,-4.18894 0,-5.93708 8.27893,-10.45586 4.35386,-2.37483 7.09152,-2.37483 1.18742,0 2.01201,0.72564 0.85758,0.69266 0.85758,1.71516 0,2.37483 -3.10048,4.05701 -3.10047,1.64919 -10.35691,3.10047 -2.24289,3.39733 -2.24289,5.67321 0,2.83661 3.06749,2.83661 5.21144,0 12.76472,-10.19199 0.39581,-0.52774 0.65968,-0.52774 0.13193,0.033 0.13193,0.1979 z m -2.77063,-6.102 q 0,-1.05548 -1.15444,-1.05548 -1.74814,0 -4.61773,2.4408 -2.8366,2.40782 -5.57426,6.26692 4.74967,-1.2204 8.04805,-3.43031 3.29838,-2.2429 3.29838,-4.22193 z m 21.57139,6.102 q 0,0.26387 -1.97903,2.40782 -2.50677,2.77064 -4.71668,2.77064 -2.50677,0 -2.50677,-2.90258 0,-0.92354 0.39581,-2.34185 -2.07798,1.81411 -3.39733,3.59524 -1.28637,1.78112 -4.4858,7.25643 -1.74814,-0.13194 -2.04499,-0.13194 -0.13194,0 -2.01201,0.13194 l 5.40934,-8.77369 q 4.057,-6.59676 4.057,-8.17998 0,-0.92354 -0.75862,-0.92354 -1.8471,0 -6.69571,7.09151 -0.29686,0.46177 -0.52774,0.46177 -0.13194,-0.033 -0.13194,-0.1979 0.033,-0.16492 0.13194,-0.26387 l 0.59371,-0.82459 q 5.0795,-6.76168 6.89361,-6.76168 2.6387,0 2.6387,3.39733 0,2.53975 -2.70467,6.72869 1.71516,-1.97902 3.26539,-3.23241 1.25339,-2.93556 3.10048,-4.91458 1.88008,-1.97903 3.36435,-1.97903 1.02249,0 1.02249,0.89056 0,1.58322 -4.58474,4.51878 -0.72565,0.46177 -2.17693,1.35234 l -0.39581,0.32983 q -0.46177,1.51726 -0.46177,2.50677 0,2.77064 2.07798,2.77064 2.57273,0 5.60724,-4.25491 0.65968,-0.72564 0.8246,-0.72564 0.1979,0 0.1979,0.1979 z m 23.15462,0 q 0,0.69266 -4.81563,6.39886 -3.89209,4.68369 -6.13499,4.68369 -1.51725,0 -2.47378,-1.12145 -0.95653,-1.15443 -0.95653,-2.86958 0,-1.78113 1.05548,-3.85911 -3.29838,4.61773 -5.04652,6.23394 -1.74814,1.6162 -3.39733,1.6162 -1.74814,0 -2.93556,-1.48427 -1.18741,-1.51725 -1.18741,-3.79313 0,-6.33289 8.9386,-11.21449 3.92507,-2.17693 6.33289,-2.17693 2.04499,0 2.04499,1.97903 0,0.56072 -0.26387,1.48427 l 1.68218,-3.19943 q 0.98951,0.23089 1.74814,0.23089 0.89056,0 2.30886,-0.23089 l -5.83813,9.66425 q -3.03451,5.0795 -3.03451,6.69571 0,1.55024 1.28637,1.55024 1.31935,0 4.22193,-3.00153 2.90257,-3.03451 5.9041,-7.45433 0.1979,-0.32984 0.36282,-0.32984 0.1979,0 0.1979,0.1979 z m -9.07054,-5.47531 q 0,-1.6162 -1.48427,-1.6162 -3.03451,0 -7.98208,5.93708 -4.91458,5.93708 -4.91458,9.59828 0,2.14395 1.91306,2.14395 2.27588,0 7.88312,-7.55329 4.58475,-6.20095 4.58475,-8.50982 z m 21.30753,-2.11096 -0.26388,0.49476 h -4.32087 l -7.35539,12.56682 q -1.35233,2.27588 -1.35233,3.62822 0,1.48427 1.55024,1.48427 3.00152,0 10.12602,-10.45586 0.23089,-0.32984 0.3958,-0.32984 0.19791,0 0.19791,0.1979 -0.033,0.099 -0.32984,0.52774 l -1.4183,1.94604 q -6.20096,8.60877 -9.33441,8.60877 -1.55024,0 -2.60572,-1.12145 -1.0225,-1.12144 -1.0225,-2.80362 0,-1.97902 1.74814,-4.94757 l 5.54128,-9.30142 h -3.36435 l 0.32984,-0.49476 h 3.29838 l 3.8591,-6.39885 q 0.98951,0.26387 1.88007,0.26387 0.92355,0 1.91306,-0.26387 l -3.79313,6.39885 z m 18.5039,7.5203 q 0,0.52774 -1.94604,2.47379 -2.90258,2.90257 -5.34338,2.90257 -1.02249,0 -1.8141,-0.3958 -4.35386,6.16796 -8.17998,6.16796 -1.97903,0 -3.39733,-1.6162 -1.38532,-1.64919 -1.38532,-3.92507 0,-5.07951 6.66272,-9.79619 4.6837,-3.33136 7.71821,-3.33136 2.8366,0 2.8366,3.03451 0,3.79313 -3.99103,9.13651 0.65967,0.3958 1.48427,0.3958 1.48427,0 3.46329,-1.38532 1.97903,-1.38532 3.23242,-3.33136 0.36282,-0.46177 0.52774,-0.46177 0.13193,0 0.13193,0.13193 z m -5.34337,-4.41982 q 0,-2.67169 -2.40782,-2.67169 -3.00152,0 -7.3224,5.73918 -4.32088,5.73918 -4.32088,9.66425 0,2.27588 2.17693,2.27588 3.56225,0 7.78418,-5.87112 -0.95653,-1.05548 -0.95653,-2.17693 0,-1.6162 1.28637,-3.33136 1.28636,-1.71515 2.50676,-1.71515 0.52774,0 0.72565,0.65967 0.52774,-1.15443 0.52774,-2.57273 z m 24.21009,4.48579 q 0,0.26387 -1.97903,2.40782 -2.50677,2.77064 -4.71668,2.77064 -2.50677,0 -2.50677,-2.90258 0,-0.92354 0.39581,-2.34185 -2.07798,1.81411 -3.39733,3.59524 -1.28637,1.78112 -4.4858,7.25643 -1.74814,-0.13194 -2.04499,-0.13194 -0.13194,0 -2.01201,0.13194 l 5.40934,-8.77369 q 4.057,-6.59676 4.057,-8.17998 0,-0.92354 -0.75862,-0.92354 -1.8471,0 -6.69571,7.09151 -0.29686,0.46177 -0.52774,0.46177 -0.13194,-0.033 -0.13194,-0.1979 0.033,-0.16492 0.13194,-0.26387 l 0.59371,-0.82459 q 5.0795,-6.76168 6.89361,-6.76168 2.6387,0 2.6387,3.39733 0,2.53975 -2.70467,6.72869 1.71516,-1.97902 3.26539,-3.23241 1.25339,-2.93556 3.10048,-4.91458 1.88008,-1.97903 3.36435,-1.97903 1.02249,0 1.02249,0.89056 0,1.58322 -4.58474,4.51878 -0.72565,0.46177 -2.17693,1.35234 l -0.39581,0.32983 q -0.46177,1.51726 -0.46177,2.50677 0,2.77064 2.07798,2.77064 2.57273,0 5.60724,-4.25491 0.65968,-0.72564 0.8246,-0.72564 0.1979,0 0.1979,0.1979 z"
         id="text18"
         style="font-size:67.5508px;font-family:'Edwardian Script ITC';-inkscape-font-specification:'Edwardian Script ITC, Normal';fill:url(#linearGradient11);stroke-width:0.190284"
         class="f"
         transform="matrix(0.96579945,-0.18011545,0.20614931,0.99696612,0,0)"
         aria-label="generator" /><text
         class="h"
         id="text30"
         style="font-size:5.41243px;font-family:Consolas, Consolas;fill:#ffffff;stroke-width:0.174595"
         x="77.741608"
         y="142.9875"
         transform="scale(1.0261465,0.97451973)"><tspan
           x="77.741608"
           y="142.9875"
           id="tspan30"
           style="stroke-width:0.174595">$</tspan></text><path
         class="g"
         d="m 106.91915,107.80229 0.057,0.75012 z"
         id="path31"
         style="fill:#ffffff;stroke-width:0.198385" /><line
         class="m"
         x1="102.35914"
         y1="100.60655"
         x2="99.346275"
         y2="93.271614"
         id="line31"
         style="fill:none;stroke:#ffffff;stroke-width:0.793539px;stroke-miterlimit:10" /><line
         class="m"
         x1="95.73288"
         y1="100.80955"
         x2="98.143173"
         y2="93.271614"
         id="line32"
         style="fill:none;stroke:#ffffff;stroke-width:0.793539px;stroke-miterlimit:10" /><line
         class="m"
         x1="102.38968"
         y1="100.69355"
         x2="99.378853"
         y2="93.36055"
         id="line33"
         style="fill:none;stroke:#ffffff;stroke-width:0.793539px;stroke-miterlimit:10" /><line
         class="m"
         x1="102.38968"
         y1="83.75206"
         x2="99.378853"
         y2="76.41906"
         id="line34"
         style="fill:none;stroke:#ffffff;stroke-width:0.793539px;stroke-miterlimit:10" /><line
         class="m"
         x1="106.20461"
         y1="92.105835"
         x2="103.19379"
         y2="84.770912"
         id="line35"
         style="fill:none;stroke:#ffffff;stroke-width:0.793539px;stroke-miterlimit:10" /><line
         class="m"
         x1="110.01955"
         y1="100.70322"
         x2="107.00668"
         y2="93.368279"
         id="line36"
         style="fill:none;stroke:#ffffff;stroke-width:0.793539px;stroke-miterlimit:10" /><line
         class="m"
         x1="114.23552"
         y1="109.01447"
         x2="111.22266"
         y2="101.67953"
         id="line37"
         style="fill:none;stroke:#ffffff;stroke-width:0.793539px;stroke-miterlimit:10" /><line
         class="m"
         x1="118.23367"
         y1="117.57124"
         x2="115.22284"
         y2="110.23631"
         id="line38"
         style="fill:none;stroke:#ffffff;stroke-width:0.793539px;stroke-miterlimit:10" /><line
         class="m"
         x1="110.20277"
         y1="117.57124"
         x2="107.19193"
         y2="110.23631"
         id="line39"
         style="fill:none;stroke:#ffffff;stroke-width:0.793539px;stroke-miterlimit:10" /><line
         class="m"
         x1="106.97615"
         y1="108.14449"
         x2="90.513298"
         y2="108.14449"
         id="line40"
         style="fill:none;stroke:#ffffff;stroke-width:0.793539px;stroke-miterlimit:10" /><line
         class="j"
         x1="114.80553"
         y1="116.70126"
         x2="110.99059"
         y2="116.70126"
         id="line41"
         style="fill:none;stroke:#ffffff;stroke-width:0.595154px;stroke-miterlimit:10" /><line
         class="j"
         x1="86.700401"
         y1="116.59879"
         x2="82.885468"
         y2="116.59879"
         id="line42"
         style="fill:none;stroke:#ffffff;stroke-width:0.595154px;stroke-miterlimit:10" /><line
         class="m"
         x1="87.70401"
         y1="117.51518"
         x2="90.152977"
         y2="110.23631"
         id="line43"
         style="fill:none;stroke:#ffffff;stroke-width:0.793539px;stroke-miterlimit:10" /><line
         class="m"
         x1="79.473602"
         y1="117.51518"
         x2="82.403"
         y2="110.26337"
         id="line44"
         style="fill:none;stroke:#ffffff;stroke-width:0.793539px;stroke-miterlimit:10" /><line
         class="m"
         x1="83.327217"
         y1="109.17686"
         x2="86.258652"
         y2="101.92506"
         id="line45"
         style="fill:none;stroke:#ffffff;stroke-width:0.793539px;stroke-miterlimit:10" /><line
         class="m"
         x1="87.341652"
         y1="100.72642"
         x2="90.273087"
         y2="93.474617"
         id="line46"
         style="fill:none;stroke:#ffffff;stroke-width:0.793539px;stroke-miterlimit:10" /><line
         class="m"
         x1="91.358124"
         y1="92.16964"
         x2="94.287521"
         y2="84.917839"
         id="line47"
         style="fill:none;stroke:#ffffff;stroke-width:0.793539px;stroke-miterlimit:10" /><line
         class="m"
         x1="95.372559"
         y1="83.784927"
         x2="98.303993"
         y2="76.533127"
         id="line48"
         style="fill:none;stroke:#ffffff;stroke-width:0.793539px;stroke-miterlimit:10" /><line
         class="m"
         x1="127.37608"
         y1="83.624458"
         x2="130.30547"
         y2="76.372665"
         id="line49"
         style="fill:none;stroke:#ffffff;stroke-width:0.793539px;stroke-miterlimit:10" /><line
         class="m"
         x1="147.24875"
         y1="117.44171"
         x2="150.18018"
         y2="110.18991"
         id="line50"
         style="fill:none;stroke:#ffffff;stroke-width:0.793539px;stroke-miterlimit:10" /><line
         class="m"
         x1="152.66986"
         y1="108.88493"
         x2="152.74519"
         y2="101.8284"
         id="line51"
         style="fill:none;stroke:#ffffff;stroke-width:0.793539px;stroke-miterlimit:10" /><line
         class="m"
         x1="124.78868"
         y1="92.285637"
         x2="124.86401"
         y2="85.229103"
         id="line52"
         style="fill:none;stroke:#ffffff;stroke-width:0.793539px;stroke-miterlimit:10" /><line
         class="m"
         x1="124.78868"
         y1="117.34505"
         x2="124.86401"
         y2="110.28851"
         id="line53"
         style="fill:none;stroke:#ffffff;stroke-width:0.793539px;stroke-miterlimit:10" /><line
         class="m"
         x1="152.69226"
         y1="83.525864"
         x2="152.76758"
         y2="76.46933"
         id="line54"
         style="fill:none;stroke:#ffffff;stroke-width:0.793539px;stroke-miterlimit:10" /><line
         class="m"
         x1="150.13539"
         y1="100.60655"
         x2="147.32611"
         y2="93.271614"
         id="line55"
         style="fill:none;stroke:#ffffff;stroke-width:0.793539px;stroke-miterlimit:10" /><line
         class="m"
         x1="130.04491"
         y1="100.57368"
         x2="127.23561"
         y2="93.240692"
         id="line56"
         style="fill:none;stroke:#ffffff;stroke-width:0.793539px;stroke-miterlimit:10" /><line
         class="m"
         x1="142.9086"
         y1="99.792633"
         x2="130.66374"
         y2="99.792633"
         id="line57"
         style="fill:none;stroke:#ffffff;stroke-width:0.793539px;stroke-miterlimit:10" /><line
         class="m"
         x1="142.50757"
         y1="108.14449"
         x2="126.64932"
         y2="108.14449"
         id="line58"
         style="fill:none;stroke:#ffffff;stroke-width:0.793539px;stroke-miterlimit:10" /><line
         class="m"
         x1="146.522"
         y1="91.43885"
         x2="134.4787"
         y2="91.43885"
         id="line59"
         style="fill:none;stroke:#ffffff;stroke-width:0.793539px;stroke-miterlimit:10" /><line
         class="m"
         x1="150.73798"
         y1="83.087006"
         x2="134.87973"
         y2="83.087006"
         id="line60"
         style="fill:none;stroke:#ffffff;stroke-width:0.793539px;stroke-miterlimit:10" /><line
         class="m"
         x1="146.522"
         y1="116.49633"
         x2="126.64932"
         y2="116.49633"
         id="line61"
         style="fill:none;stroke:#ffffff;stroke-width:0.793539px;stroke-miterlimit:10" /><line
         class="m"
         x1="150.73798"
         y1="74.530228"
         x2="130.66374"
         y2="74.530228"
         id="line62"
         style="fill:none;stroke:#ffffff;stroke-width:0.793539px;stroke-miterlimit:10" /><path
         class="l"
         d="m 143.31167,108.7554 c 0,11.26147 8.97955,20.3731 20.07421,20.3731"
         id="path62"
         style="fill:none;stroke-width:0.198385" /><path
         class="k"
         d="m 133.97587,85.022237 c -3.01083,2.240692 -1.69575,5.857893 0,7.130003"
         id="path63"
         style="fill:none;stroke:#ffffff;stroke-width:0.697001;stroke-miterlimit:10;stroke-dasharray:none" /><path
         class="k"
         d="m 143.7921,108.9816 c 2.83983,-2.46109 1.26215,-5.97002 -0.52114,-7.11067"
         id="path64"
         style="fill:none;stroke:#ffffff;stroke-width:0.697001;stroke-miterlimit:10;stroke-dasharray:none" /><line
         class="m"
         x1="186.47092"
         y1="74.530228"
         x2="166.59825"
         y2="74.530228"
         id="line64"
         style="fill:none;stroke:#ffffff;stroke-width:0.793539px;stroke-miterlimit:10" /><line
         class="m"
         x1="186.47092"
         y1="116.70126"
         x2="166.59825"
         y2="116.70126"
         id="line65"
         style="fill:none;stroke:#ffffff;stroke-width:0.793539px;stroke-miterlimit:10" /><line
         class="m"
         x1="186.47092"
         y1="108.34748"
         x2="170.41115"
         y2="108.34748"
         id="line66"
         style="fill:none;stroke:#ffffff;stroke-width:0.793539px;stroke-miterlimit:10" /><line
         class="m"
         x1="186.47092"
         y1="83.087006"
         x2="170.41115"
         y2="83.087006"
         id="line67"
         style="fill:none;stroke:#ffffff;stroke-width:0.793539px;stroke-miterlimit:10" /><line
         class="m"
         x1="188.52089"
         y1="117.39338"
         x2="188.59825"
         y2="110.33685"
         id="line68"
         style="fill:none;stroke:#ffffff;stroke-width:0.793539px;stroke-miterlimit:10" /><line
         class="m"
         x1="188.52089"
         y1="83.574196"
         x2="188.59825"
         y2="76.517662"
         id="line69"
         style="fill:none;stroke:#ffffff;stroke-width:0.793539px;stroke-miterlimit:10" /><line
         class="m"
         x1="188.52089"
         y1="83.574196"
         x2="188.59825"
         y2="76.517662"
         id="line70"
         style="fill:none;stroke:#ffffff;stroke-width:0.793539px;stroke-miterlimit:10" /><line
         class="m"
         x1="160.61731"
         y1="108.8366"
         x2="160.69467"
         y2="101.78007"
         id="line71"
         style="fill:none;stroke:#ffffff;stroke-width:0.793539px;stroke-miterlimit:10" /><line
         class="m"
         x1="168.64821"
         y1="108.8366"
         x2="168.72354"
         y2="101.78007"
         id="line72"
         style="fill:none;stroke:#ffffff;stroke-width:0.793539px;stroke-miterlimit:10" /><line
         class="m"
         x1="168.64821"
         y1="100.48476"
         x2="168.72354"
         y2="93.428223"
         id="line73"
         style="fill:none;stroke:#ffffff;stroke-width:0.793539px;stroke-miterlimit:10" /><line
         class="m"
         x1="160.61731"
         y1="100.48476"
         x2="160.69467"
         y2="93.428223"
         id="line74"
         style="fill:none;stroke:#ffffff;stroke-width:0.793539px;stroke-miterlimit:10" /><line
         class="m"
         x1="160.61731"
         y1="92.130974"
         x2="160.69467"
         y2="85.074432"
         id="line75"
         style="fill:none;stroke:#ffffff;stroke-width:0.793539px;stroke-miterlimit:10" /><line
         class="m"
         x1="168.64821"
         y1="91.927979"
         x2="168.72354"
         y2="84.871437"
         id="line76"
         style="fill:none;stroke:#ffffff;stroke-width:0.793539px;stroke-miterlimit:10" /><line
         class="m"
         x1="163.60574"
         y1="83.672791"
         x2="166.53717"
         y2="76.420998"
         id="line77"
         style="fill:none;stroke:#ffffff;stroke-width:0.793539px;stroke-miterlimit:10" /><line
         class="m"
         x1="165.47453"
         y1="117.53258"
         x2="162.66321"
         y2="110.19765"
         id="line78"
         style="fill:none;stroke:#ffffff;stroke-width:0.793539px;stroke-miterlimit:10" /><line
         class="m"
         x1="212.25737"
         y1="91.927979"
         x2="212.33472"
         y2="84.871437"
         id="line79"
         style="fill:none;stroke:#ffffff;stroke-width:0.793539px;stroke-miterlimit:10" /><line
         class="m"
         x1="212.25737"
         y1="100.48476"
         x2="212.33472"
         y2="93.428223"
         id="line80"
         style="fill:none;stroke:#ffffff;stroke-width:0.793539px;stroke-miterlimit:10" /><line
         class="m"
         x1="212.25737"
         y1="108.8366"
         x2="212.33472"
         y2="101.78007"
         id="line81"
         style="fill:none;stroke:#ffffff;stroke-width:0.793539px;stroke-miterlimit:10" /><line
         class="m"
         x1="204.2285"
         y1="108.8366"
         x2="204.30382"
         y2="101.78007"
         id="line82"
         style="fill:none;stroke:#ffffff;stroke-width:0.793539px;stroke-miterlimit:10" /><line
         class="m"
         x1="204.2285"
         y1="100.48476"
         x2="204.30382"
         y2="93.428223"
         id="line83"
         style="fill:none;stroke:#ffffff;stroke-width:0.793539px;stroke-miterlimit:10" /><line
         class="m"
         x1="204.2285"
         y1="92.335899"
         x2="204.30382"
         y2="85.279366"
         id="line84"
         style="fill:none;stroke:#ffffff;stroke-width:0.793539px;stroke-miterlimit:10" /><line
         class="m"
         x1="220.28827"
         y1="117.39338"
         x2="220.3636"
         y2="110.33685"
         id="line85"
         style="fill:none;stroke:#ffffff;stroke-width:0.793539px;stroke-miterlimit:10" /><line
         class="m"
         x1="196.39912"
         y1="117.39338"
         x2="196.47444"
         y2="110.33685"
         id="line86"
         style="fill:none;stroke:#ffffff;stroke-width:0.793539px;stroke-miterlimit:10" /><line
         class="m"
         x1="220.28827"
         y1="83.574196"
         x2="220.3636"
         y2="76.517662"
         id="line87"
         style="fill:none;stroke:#ffffff;stroke-width:0.793539px;stroke-miterlimit:10" /><line
         class="m"
         x1="196.39912"
         y1="83.574196"
         x2="196.47444"
         y2="76.517662"
         id="line88"
         style="fill:none;stroke:#ffffff;stroke-width:0.793539px;stroke-miterlimit:10" /><line
         class="m"
         x1="198.31676"
         y1="108.14449"
         x2="202.5307"
         y2="108.14449"
         id="line89"
         style="fill:none;stroke:#ffffff;stroke-width:0.793539px;stroke-miterlimit:10" /><line
         class="m"
         x1="213.97348"
         y1="108.14449"
         x2="218.18944"
         y2="108.14449"
         id="line90"
         style="fill:none;stroke:#ffffff;stroke-width:0.793539px;stroke-miterlimit:10" /><line
         class="m"
         x1="230.43633"
         y1="108.14449"
         x2="234.6523"
         y2="108.14449"
         id="line91"
         style="fill:none;stroke:#ffffff;stroke-width:0.793539px;stroke-miterlimit:10" /><line
         class="m"
         x1="246.09302"
         y1="108.34748"
         x2="250.30899"
         y2="108.34748"
         id="line92"
         style="fill:none;stroke:#ffffff;stroke-width:0.793539px;stroke-miterlimit:10" /><line
         class="m"
         x1="198.31676"
         y1="83.087006"
         x2="202.5307"
         y2="83.087006"
         id="line93"
         style="fill:none;stroke:#ffffff;stroke-width:0.793539px;stroke-miterlimit:10" /><line
         class="m"
         x1="214.175"
         y1="83.087006"
         x2="218.39099"
         y2="83.087006"
         id="line94"
         style="fill:none;stroke:#ffffff;stroke-width:0.793539px;stroke-miterlimit:10" /><line
         class="m"
         x1="230.43633"
         y1="83.087006"
         x2="234.6523"
         y2="83.087006"
         id="line95"
         style="fill:none;stroke:#ffffff;stroke-width:0.793539px;stroke-miterlimit:10" /><line
         class="m"
         x1="246.09302"
         y1="83.087006"
         x2="250.30899"
         y2="83.087006"
         id="line96"
         style="fill:none;stroke:#ffffff;stroke-width:0.793539px;stroke-miterlimit:10" /><line
         class="m"
         x1="198.11523"
         y1="116.70126"
         x2="218.39099"
         y2="116.70126"
         id="line97"
         style="fill:none;stroke:#ffffff;stroke-width:0.793539px;stroke-miterlimit:10" /><line
         class="m"
         x1="230.43633"
         y1="116.49633"
         x2="250.71207"
         y2="116.49633"
         id="line98"
         style="fill:none;stroke:#ffffff;stroke-width:0.793539px;stroke-miterlimit:10" /><line
         class="m"
         x1="198.11523"
         y1="74.530228"
         x2="218.39099"
         y2="74.530228"
         id="line99"
         style="fill:none;stroke:#ffffff;stroke-width:0.793539px;stroke-miterlimit:10" /><line
         class="m"
         x1="230.43633"
         y1="74.530228"
         x2="250.71207"
         y2="74.530228"
         id="line100"
         style="fill:none;stroke:#ffffff;stroke-width:0.793539px;stroke-miterlimit:10" /><line
         class="m"
         x1="244.27716"
         y1="91.927979"
         x2="244.35452"
         y2="84.871437"
         id="line101"
         style="fill:none;stroke:#ffffff;stroke-width:0.793539px;stroke-miterlimit:10" /><line
         class="m"
         x1="244.27716"
         y1="100.48476"
         x2="244.35452"
         y2="93.428223"
         id="line102"
         style="fill:none;stroke:#ffffff;stroke-width:0.793539px;stroke-miterlimit:10" /><line
         class="m"
         x1="244.27716"
         y1="108.8366"
         x2="244.35452"
         y2="101.78007"
         id="line103"
         style="fill:none;stroke:#ffffff;stroke-width:0.793539px;stroke-miterlimit:10" /><line
         class="m"
         x1="236.24829"
         y1="108.8366"
         x2="236.32361"
         y2="101.78007"
         id="line104"
         style="fill:none;stroke:#ffffff;stroke-width:0.793539px;stroke-miterlimit:10" /><line
         class="m"
         x1="236.24829"
         y1="100.48476"
         x2="236.32361"
         y2="93.428223"
         id="line105"
         style="fill:none;stroke:#ffffff;stroke-width:0.793539px;stroke-miterlimit:10" /><line
         class="m"
         x1="236.24829"
         y1="92.335899"
         x2="236.32361"
         y2="85.279366"
         id="line106"
         style="fill:none;stroke:#ffffff;stroke-width:0.793539px;stroke-miterlimit:10" /><line
         class="m"
         x1="252.30807"
         y1="117.39338"
         x2="252.38339"
         y2="110.33685"
         id="line107"
         style="fill:none;stroke:#ffffff;stroke-width:0.793539px;stroke-miterlimit:10" /><line
         class="m"
         x1="228.41891"
         y1="117.39338"
         x2="228.49425"
         y2="110.33685"
         id="line108"
         style="fill:none;stroke:#ffffff;stroke-width:0.793539px;stroke-miterlimit:10" /><line
         class="m"
         x1="252.30807"
         y1="83.574196"
         x2="252.38339"
         y2="76.517662"
         id="line109"
         style="fill:none;stroke:#ffffff;stroke-width:0.793539px;stroke-miterlimit:10" /><line
         class="m"
         x1="228.41891"
         y1="83.574196"
         x2="228.49425"
         y2="76.517662"
         id="line110"
         style="fill:none;stroke:#ffffff;stroke-width:0.793539px;stroke-miterlimit:10" /><line
         class="m"
         x1="298.81403"
         y1="100.75928"
         x2="301.22433"
         y2="93.221352"
         id="line111"
         style="fill:none;stroke:#ffffff;stroke-width:0.793539px;stroke-miterlimit:10" /><line
         class="m"
         x1="305.47083"
         y1="100.64328"
         x2="302.45999"
         y2="93.30835"
         id="line112"
         style="fill:none;stroke:#ffffff;stroke-width:0.793539px;stroke-miterlimit:10" /><line
         class="m"
         x1="305.47083"
         y1="83.70179"
         x2="302.45999"
         y2="76.366867"
         id="line113"
         style="fill:none;stroke:#ffffff;stroke-width:0.793539px;stroke-miterlimit:10" /><line
         class="m"
         x1="309.28577"
         y1="92.053642"
         x2="306.27493"
         y2="84.720642"
         id="line114"
         style="fill:none;stroke:#ffffff;stroke-width:0.793539px;stroke-miterlimit:10" /><line
         class="m"
         x1="313.10071"
         y1="100.65102"
         x2="310.08987"
         y2="93.318024"
         id="line115"
         style="fill:none;stroke:#ffffff;stroke-width:0.793539px;stroke-miterlimit:10" /><line
         class="m"
         x1="317.31665"
         y1="108.9642"
         x2="314.3038"
         y2="101.62926"
         id="line116"
         style="fill:none;stroke:#ffffff;stroke-width:0.793539px;stroke-miterlimit:10" /><line
         class="m"
         x1="321.31482"
         y1="117.51904"
         x2="318.30399"
         y2="110.18604"
         id="line117"
         style="fill:none;stroke:#ffffff;stroke-width:0.793539px;stroke-miterlimit:10" /><line
         class="m"
         x1="313.28391"
         y1="117.51904"
         x2="310.27307"
         y2="110.18604"
         id="line118"
         style="fill:none;stroke:#ffffff;stroke-width:0.793539px;stroke-miterlimit:10" /><line
         class="m"
         x1="310.05728"
         y1="108.09422"
         x2="293.59647"
         y2="108.09422"
         id="line119"
         style="fill:none;stroke:#ffffff;stroke-width:0.793539px;stroke-miterlimit:10" /><line
         class="j"
         x1="317.88666"
         y1="116.64906"
         x2="314.07175"
         y2="116.64906"
         id="line120"
         style="fill:none;stroke:#ffffff;stroke-width:0.595154px;stroke-miterlimit:10" /><line
         class="j"
         x1="289.78156"
         y1="116.54853"
         x2="285.96661"
         y2="116.54853"
         id="line121"
         style="fill:none;stroke:#ffffff;stroke-width:0.595154px;stroke-miterlimit:10" /><line
         class="m"
         x1="290.78516"
         y1="117.46491"
         x2="293.23413"
         y2="110.18604"
         id="line122"
         style="fill:none;stroke:#ffffff;stroke-width:0.793539px;stroke-miterlimit:10" /><line
         class="m"
         x1="282.55475"
         y1="117.46491"
         x2="285.48618"
         y2="110.21311"
         id="line123"
         style="fill:none;stroke:#ffffff;stroke-width:0.793539px;stroke-miterlimit:10" /><line
         class="m"
         x1="286.40836"
         y1="109.12659"
         x2="289.33981"
         y2="101.87479"
         id="line124"
         style="fill:none;stroke:#ffffff;stroke-width:0.793539px;stroke-miterlimit:10" /><line
         class="m"
         x1="290.42279"
         y1="100.67616"
         x2="293.35425"
         y2="93.424347"
         id="line125"
         style="fill:none;stroke:#ffffff;stroke-width:0.793539px;stroke-miterlimit:10" /><line
         class="m"
         x1="294.43927"
         y1="92.11937"
         x2="297.36865"
         y2="84.867577"
         id="line126"
         style="fill:none;stroke:#ffffff;stroke-width:0.793539px;stroke-miterlimit:10" /><line
         class="m"
         x1="298.4537"
         y1="83.732727"
         x2="301.38513"
         y2="76.482857"
         id="line127"
         style="fill:none;stroke:#ffffff;stroke-width:0.793539px;stroke-miterlimit:10" /><line
         class="m"
         x1="329.40475"
         y1="74.530228"
         x2="349.68048"
         y2="74.530228"
         id="line128"
         style="fill:none;stroke:#ffffff;stroke-width:0.793539px;stroke-miterlimit:10" /><line
         class="m"
         x1="365.93976"
         y1="74.530228"
         x2="393.44235"
         y2="74.530228"
         id="line129"
         style="fill:none;stroke:#ffffff;stroke-width:0.793539px;stroke-miterlimit:10" /><line
         class="m"
         x1="327.88"
         y1="83.460129"
         x2="327.95737"
         y2="76.403587"
         id="line130"
         style="fill:none;stroke:#ffffff;stroke-width:0.793539px;stroke-miterlimit:10" /><line
         class="m"
         x1="327.88"
         y1="92.016907"
         x2="327.95737"
         y2="84.960373"
         id="line131"
         style="fill:none;stroke:#ffffff;stroke-width:0.793539px;stroke-miterlimit:10" /><line
         class="m"
         x1="327.88"
         y1="100.37069"
         x2="327.95737"
         y2="93.314148"
         id="line132"
         style="fill:none;stroke:#ffffff;stroke-width:0.793539px;stroke-miterlimit:10" /><line
         class="m"
         x1="327.88"
         y1="108.92553"
         x2="327.95737"
         y2="101.869"
         id="line133"
         style="fill:none;stroke:#ffffff;stroke-width:0.793539px;stroke-miterlimit:10" /><line
         class="m"
         x1="327.88"
         y1="117.27932"
         x2="327.95737"
         y2="110.22278"
         id="line134"
         style="fill:none;stroke:#ffffff;stroke-width:0.793539px;stroke-miterlimit:10" /><line
         class="m"
         x1="375.65829"
         y1="91.813911"
         x2="375.73566"
         y2="84.757378"
         id="line135"
         style="fill:none;stroke:#ffffff;stroke-width:0.793539px;stroke-miterlimit:10" /><line
         class="m"
         x1="375.65829"
         y1="100.37069"
         x2="375.73566"
         y2="93.314148"
         id="line136"
         style="fill:none;stroke:#ffffff;stroke-width:0.793539px;stroke-miterlimit:10" /><line
         class="m"
         x1="375.65829"
         y1="108.72253"
         x2="375.73566"
         y2="101.666"
         id="line137"
         style="fill:none;stroke:#ffffff;stroke-width:0.793539px;stroke-miterlimit:10" /><line
         class="m"
         x1="375.65829"
         y1="117.27932"
         x2="375.73566"
         y2="110.22278"
         id="line138"
         style="fill:none;stroke:#ffffff;stroke-width:0.793539px;stroke-miterlimit:10" /><line
         class="m"
         x1="383.28818"
         y1="92.016907"
         x2="383.36349"
         y2="84.960373"
         id="line139"
         style="fill:none;stroke:#ffffff;stroke-width:0.793539px;stroke-miterlimit:10" /><line
         class="m"
         x1="383.28818"
         y1="100.57368"
         x2="383.36349"
         y2="93.517151"
         id="line140"
         style="fill:none;stroke:#ffffff;stroke-width:0.793539px;stroke-miterlimit:10" /><line
         class="m"
         x1="383.28818"
         y1="108.92553"
         x2="383.36349"
         y2="101.869"
         id="line141"
         style="fill:none;stroke:#ffffff;stroke-width:0.793539px;stroke-miterlimit:10" /><line
         class="m"
         x1="383.28818"
         y1="117.48231"
         x2="383.36349"
         y2="110.42577"
         id="line142"
         style="fill:none;stroke:#ffffff;stroke-width:0.793539px;stroke-miterlimit:10" /><line
         class="j"
         x1="333.82025"
         y1="116.59879"
         x2="330.00732"
         y2="116.59879"
         id="line143"
         style="fill:none;stroke:#ffffff;stroke-width:0.595154px;stroke-miterlimit:10" /><line
         class="j"
         x1="341.6496"
         y1="99.69017"
         x2="337.8367"
         y2="99.69017"
         id="line144"
         style="fill:none;stroke:#ffffff;stroke-width:0.595154px;stroke-miterlimit:10" /><line
         class="j"
         x1="353.69495"
         y1="116.59879"
         x2="349.88"
         y2="116.59879"
         id="line145"
         style="fill:none;stroke:#ffffff;stroke-width:0.595154px;stroke-miterlimit:10" /><line
         class="j"
         x1="381.59851"
         y1="116.59879"
         x2="377.78561"
         y2="116.59879"
         id="line146"
         style="fill:none;stroke:#ffffff;stroke-width:0.595154px;stroke-miterlimit:10" /><line
         class="j"
         x1="373.6694"
         y1="82.781548"
         x2="365.93976"
         y2="82.781548"
         id="line147"
         style="fill:none;stroke:#ffffff;stroke-width:0.595154px;stroke-miterlimit:10" /><line
         class="j"
         x1="393.54208"
         y1="82.849213"
         x2="385.81244"
         y2="82.849213"
         id="line148"
         style="fill:none;stroke:#ffffff;stroke-width:0.595154px;stroke-miterlimit:10" /><line
         class="j"
         x1="345.76376"
         y1="82.849213"
         x2="338.03415"
         y2="82.849213"
         id="line149"
         style="fill:none;stroke:#ffffff;stroke-width:0.595154px;stroke-miterlimit:10" /><line
         class="m"
         x1="335.83762"
         y1="92.082642"
         x2="335.91498"
         y2="85.0261"
         id="line150"
         style="fill:none;stroke:#ffffff;stroke-width:0.793539px;stroke-miterlimit:10" /><line
         class="m"
         x1="335.83762"
         y1="108.99127"
         x2="335.91498"
         y2="101.93473"
         id="line151"
         style="fill:none;stroke:#ffffff;stroke-width:0.793539px;stroke-miterlimit:10" /><line
         class="m"
         x1="335.83762"
         y1="117.34505"
         x2="335.91498"
         y2="110.28851"
         id="line152"
         style="fill:none;stroke:#ffffff;stroke-width:0.793539px;stroke-miterlimit:10" /><line
         class="m"
         x1="363.73306"
         y1="83.492996"
         x2="363.81857"
         y2="76.46933"
         id="line153"
         style="fill:none;stroke:#ffffff;stroke-width:0.793539px;stroke-miterlimit:10" /><line
         class="m"
         x1="395.45563"
         y1="83.510399"
         x2="395.54114"
         y2="76.486725"
         id="line154"
         style="fill:none;stroke:#ffffff;stroke-width:0.793539px;stroke-miterlimit:10" /><line
         class="m"
         x1="355.70218"
         y1="91.846779"
         x2="355.79376"
         y2="84.83857"
         id="line155"
         style="fill:none;stroke:#ffffff;stroke-width:0.793539px;stroke-miterlimit:10" /><line
         class="m"
         x1="350.28308"
         y1="100.80955"
         x2="353.18604"
         y2="93.606079"
         id="line156"
         style="fill:none;stroke:#ffffff;stroke-width:0.793539px;stroke-miterlimit:10" /><line
         class="m"
         x1="353.69495"
         y1="109.16333"
         x2="350.28308"
         y2="101.8284"
         id="line157"
         style="fill:none;stroke:#ffffff;stroke-width:0.793539px;stroke-miterlimit:10" /><line
         class="m"
         x1="357.65848"
         y1="117.68724"
         x2="354.2446"
         y2="110.35231"
         id="line158"
         style="fill:none;stroke:#ffffff;stroke-width:0.793539px;stroke-miterlimit:10" /><line
         class="m"
         x1="349.42807"
         y1="117.68724"
         x2="346.01416"
         y2="110.35231"
         id="line159"
         style="fill:none;stroke:#ffffff;stroke-width:0.793539px;stroke-miterlimit:10" /><line
         class="m"
         x1="345.41159"
         y1="109.33346"
         x2="341.99973"
         y2="102.00047"
         id="line160"
         style="fill:none;stroke:#ffffff;stroke-width:0.793539px;stroke-miterlimit:10" /><line
         class="m"
         x1="353.29388"
         y1="84.105858"
         x2="350.02863"
         y2="76.127129"
         id="line161"
         style="fill:none;stroke:#ffffff;stroke-width:0.793539px;stroke-miterlimit:10" /><path
         class="j"
         d="m 346.92823,91.711448 c 2.83982,-2.461088 1.26214,-5.970024 -0.52115,-7.11067"
         id="path161"
         style="fill:none;stroke:#ffffff;stroke-width:0.595154px;stroke-miterlimit:10" /><line
         class="j"
         x1="345.55411"
         y1="91.33252"
         x2="337.82651"
         y2="91.33252"
         id="line162"
         style="fill:none;stroke:#ffffff;stroke-width:0.595154px;stroke-miterlimit:10" /><text
         xml:space="preserve"
         style="font-style:normal;font-variant:normal;font-weight:normal;font-stretch:normal;font-size:5.41243px;font-family:Consolas, Consolas;-inkscape-font-specification:'Consolas, Consolas, Normal';font-variant-ligatures:normal;font-variant-caps:normal;font-variant-numeric:normal;font-variant-east-asian:normal;letter-spacing:0.067528px;word-spacing:0.020957px;fill:#ffffff;fill-opacity:1;stroke:none;stroke-width:18.3057;stroke-dasharray:none;stroke-opacity:0.612903"
         x="80.048996"
         y="132.72215"
         id="text59-3-4"><tspan
           sodipodi:role="line"
           id="tspan59-0-5"
           style="stroke-width:18.3057"
           x="80.048996"
           y="132.72215"><tspan
   style="fill:#ddafe9;stroke-width:18.3057"
   id="tspan60-9-6">@ZONE01</tspan> <tspan
   style="fill:#5599ff;stroke-width:18.3057"
   id="tspan61-6-7">MINGW64</tspan> <tspan
   style="fill:#ffaacc;stroke-width:18.3057"
   id="tspan64">~ZONE01/OUJDA/ASCII-ART-WEB</tspan></tspan></text><text
         xml:space="preserve"
         style="font-style:normal;font-variant:normal;font-weight:normal;font-stretch:normal;font-size:5.41243px;font-family:Consolas, Consolas;-inkscape-font-specification:'Consolas, Consolas, Normal';font-variant-ligatures:normal;font-variant-caps:normal;font-variant-numeric:normal;font-variant-east-asian:normal;letter-spacing:0.0675279px;word-spacing:0.0209569px;fill:#ffffff;fill-opacity:1;stroke:none;stroke-width:18.3057;stroke-dasharray:none;stroke-opacity:0.612903"
         x="80.048996"
         y="39.792755"
         id="text59"><tspan
           sodipodi:role="line"
           id="tspan59"
           style="stroke-width:18.3057"
           x="80.048996"
           y="39.792755"><tspan
   style="fill:#ddafe9;stroke-width:18.3057"
   id="tspan60">@ZONE01</tspan> <tspan
   style="fill:#5599ff;stroke-width:18.3057"
   id="tspan61">MINGW64</tspan> <tspan
   style="fill:#ffaaee;stroke-width:18.3057"
   id="tspan62">~</tspan></tspan></text><text
         xml:space="preserve"
         style="font-style:normal;font-variant:normal;font-weight:normal;font-stretch:normal;font-size:5.41243px;font-family:Consolas, Consolas;-inkscape-font-specification:'Consolas, Consolas, Normal';font-variant-ligatures:normal;font-variant-caps:normal;font-variant-numeric:normal;font-variant-east-asian:normal;letter-spacing:0.0675279px;word-spacing:0.0209569px;fill:#ffffff;fill-opacity:1;stroke:none;stroke-width:18.3057;stroke-dasharray:none;stroke-opacity:0.612903"
         x="80.048996"
         y="58.10482"
         id="text59-3"><tspan
           sodipodi:role="line"
           id="tspan59-0"
           style="stroke-width:18.3057"
           x="80.048996"
           y="58.10482"><tspan
   style="fill:#ddafe9;stroke-width:18.3057"
   id="tspan60-9">@ZONE01</tspan> <tspan
   style="fill:#5599ff;stroke-width:18.3057"
   id="tspan61-6">MINGW64</tspan> <tspan
   style="fill:#ffaacc;stroke-width:18.3057"
   id="tspan63">~ZONE01/OUJDA/ASCII-ART-WEB</tspan></tspan></text></g></g></svg>
