<?xml version="1.0" encoding="UTF-8" standalone="no"?>
<!-- Created with Inkscape (http://www.inkscape.org/) -->

<svg
   width="1410.6591"
   height="469.97424"
   viewBox="0 0 373.23687 124.34735"
   version="1.1"
   id="svg1"
   xml:space="preserve"
   inkscape:version="1.4 (86a8ad7, 2024-10-11)"
   sodipodi:docname="Banner_400.svg"
   inkscape:export-filename="Banner_400.svg"
   inkscape:export-xdpi="96"
   inkscape:export-ydpi="96"
   xmlns:inkscape="http://www.inkscape.org/namespaces/inkscape"
   xmlns:sodipodi="http://sodipodi.sourceforge.net/DTD/sodipodi-0.dtd"
   xmlns:xlink="http://www.w3.org/1999/xlink"
   xmlns="http://www.w3.org/2000/svg"
   xmlns:svg="http://www.w3.org/2000/svg"><sodipodi:namedview
     id="namedview1"
     pagecolor="#505050"
     bordercolor="#eeeeee"
     borderopacity="1"
     inkscape:showpageshadow="0"
     inkscape:pageopacity="0"
     inkscape:pagecheckerboard="0"
     inkscape:deskcolor="#505050"
     inkscape:document-units="px"
     inkscape:zoom="0.89263468"
     inkscape:cx="711.93739"
     inkscape:cy="295.19355"
     inkscape:window-width="1366"
     inkscape:window-height="697"
     inkscape:window-x="-8"
     inkscape:window-y="-8"
     inkscape:window-maximized="1"
     inkscape:current-layer="g10"><sodipodi:guide
       position="-78.182647,536.49506"
       orientation="0,1920"
       id="guide1"
       inkscape:locked="false" /><sodipodi:guide
       position="-122.40145,17.036488"
       orientation="1200,0"
       id="guide2"
       inkscape:locked="false" /><sodipodi:guide
       position="429.81735,218.99506"
       orientation="0,-1920"
       id="guide3"
       inkscape:locked="false" /><sodipodi:guide
       position="-78.182647,218.99506"
       orientation="-1200,0"
       id="guide4"
       inkscape:locked="false" /><inkscape:page
       x="0"
       y="0"
       width="373.23688"
       height="124.34735"
       id="page2"
       margin="0"
       bleed="0" /></sodipodi:namedview><defs
     id="defs1"><linearGradient
       id="linearGradient10"
       x1="0"
       y1="318.51001"
       x2="1826.86"
       y2="318.51001"
       gradientUnits="userSpaceOnUse"><stop
         offset="0"
         stop-color="#ff7bac"
         id="stop9" /><stop
         offset="0.57999998"
         stop-color="#3a62a8"
         stop-opacity=".8"
         id="stop10"
         style="stop-color:#c8d6ec;stop-opacity:0.80000001;" /></linearGradient><linearGradient
       id="d"
       x1="0"
       y1="318.51001"
       x2="1826.86"
       y2="318.51001"
       gradientUnits="userSpaceOnUse"><stop
         offset="0"
         stop-color="#ff7bac"
         id="stop1" /><stop
         offset=".58"
         stop-color="#3a62a8"
         stop-opacity=".8"
         id="stop8" /></linearGradient><linearGradient
       inkscape:collect="always"
       xlink:href="#d"
       id="linearGradient39"
       gradientUnits="userSpaceOnUse"
       x1="0"
       y1="318.51001"
       x2="1826.86"
       y2="318.51001"
       gradientTransform="matrix(0.96178696,0,0,0.92224186,79.46807,17.751217)" /><style
       id="style1">.f{font-family:EdwardianScriptITC, Edwardian Script ITC;font-size:355px;}.f,.g,.h{fill:#fff;}.i{fill:#662d91;}.j{stroke-width:3px;}.j,.k,.l,.m{fill:none;}.j,.k,.m{stroke:#fff;stroke-miterlimit:10;}.k{stroke-width:2px;}.n{fill:#0071bc;}.o{fill:url(#d);}.p{fill:url(#e);}.h,.q{font-family:Consolas, Consolas;font-size:31px;}.r{opacity:.69;}.r,.s{fill:#29abe2;}.t{fill:#93278f;}.m{stroke-width:4px;}.u{opacity:.77;}</style><style
       id="style1-3">.f{opacity:.83;}.g{font-family:EdwardianScriptITC, Edwardian Script ITC;font-size:249.87px;}.g,.h{fill:#fff;}.i{fill:#662d91;}.j{stroke-width:3px;}.j,.k{fill:none;stroke:#fff;stroke-miterlimit:10;}.l{fill:#0071bc;}.m{fill:url(#d);}.n{fill:url(#e);}.h,.o{font-family:Consolas, Consolas;font-size:31px;}.p{opacity:.69;}.p,.q{fill:#29abe2;}.r{fill:#93278f;}.k{stroke-width:4px;}</style><style
       id="style1-2">.f{opacity:.83;}.g{font-family:EdwardianScriptITC, Edwardian Script ITC;font-size:275.28px;}.g,.h{fill:#fff;}.i{fill:#662d91;}.j{stroke-width:2px;}.j,.k{fill:none;stroke:#fff;stroke-miterlimit:10;}.l{fill:#0071bc;}.m{fill:url(#d);}.n{fill:url(#e);}.h,.o{font-family:Consolas, Consolas;font-size:31px;}.p{opacity:.69;}.p,.q{fill:#29abe2;}.r{fill:#93278f;}.k{stroke-width:4px;}</style><linearGradient
       id="e-9"
       x1="1087.8101"
       y1="257.67999"
       x2="1855.76"
       y2="257.67999"
       gradientTransform="matrix(1.0914701,0.25118325,-0.21561181,1.2843613,-525.23,-254.92)"
       gradientUnits="userSpaceOnUse"><stop
         offset="0"
         stop-color="#ff7bac"
         id="stop3-3" /><stop
         offset=".09"
         stop-color="#f67bac"
         stop-opacity=".97"
         id="stop4-9" /><stop
         offset=".22"
         stop-color="#df7bac"
         stop-opacity=".88"
         id="stop5-8" /><stop
         offset=".39"
         stop-color="#ba7bac"
         stop-opacity=".73"
         id="stop6-4" /><stop
         offset=".58"
         stop-color="#867bac"
         stop-opacity=".53"
         id="stop7-3" /><stop
         offset=".8"
         stop-color="#447bac"
         stop-opacity=".27"
         id="stop8-6" /><stop
         offset="1"
         stop-color="#007bac"
         stop-opacity="0"
         id="stop9-3" /></linearGradient><linearGradient
       inkscape:collect="always"
       xlink:href="#e-9"
       id="linearGradient56"
       gradientUnits="userSpaceOnUse"
       gradientTransform="matrix(1.0914701,0.25118325,-0.21561181,1.2843613,-525.23,-254.92)"
       x1="1087.8101"
       y1="257.67999"
       x2="1855.76"
       y2="257.67999" /><linearGradient
       inkscape:collect="always"
       xlink:href="#linearGradient10"
       id="linearGradient9"
       x1="16.801758"
       y1="-67.139824"
       x2="1448.1772"
       y2="-67.139824"
       gradientUnits="userSpaceOnUse" /></defs><g
     inkscape:label="Layer 1"
     inkscape:groupmode="layer"
     id="layer1"
     transform="translate(-78.182648,-412.14771)"><g
       id="Banner404"
       transform="matrix(0.21242245,0,0,0.21165994,61.301846,408.39049)"
       inkscape:export-filename="Banner_400.svg"
       inkscape:export-xdpi="96"
       inkscape:export-ydpi="96"><text
         class="q"
         transform="scale(1.0261465,0.97451973)"
         id="text16"
         style="font-size:29.0557px;font-family:Consolas, Consolas;stroke-width:0.93728"
         x="-78.03302"
         y="-907.00195"><tspan
           class="n"
           x="-78.03302"
           y="-907.00195"
           id="tspan14"
           style="fill:#f2f2f2;stroke-width:0.93728" /></text><text
         xml:space="preserve"
         style="font-size:15.0005px;letter-spacing:0.0250008px;word-spacing:0.137505px;fill:#aaccff;fill-opacity:0.672043;stroke:none;stroke-width:98.271;stroke-dasharray:none;stroke-opacity:0.612903"
         x="88.163582"
         y="-987.98334"
         id="text51"><tspan
           sodipodi:role="line"
           id="tspan51"
           style="stroke-width:98.271"
           x="88.163582"
           y="-987.98334" /></text><g
         id="g214"
         transform="matrix(0.94932703,0,0,0.94932703,79.807774,-36.149139)" /><g
         id="g11"><rect
           y="17.751217"
           width="1757.0502"
           height="579.35748"
           rx="39.317852"
           ry="37.179577"
           id="rect9"
           x="79.468071"
           style="opacity:0.77;stroke-width:0.935268" /><path
           class="o"
           d="m 1797.2003,20.517942 c 20.0918,0 36.4325,15.668889 36.4325,34.934521 V 567.53646 c 0,19.26563 -16.3407,34.93452 -36.4325,34.93452 H 118.78592 c -20.091729,0 -36.432489,-15.66889 -36.432489,-34.93452 V 55.452463 c 0,-19.265632 16.34076,-34.934521 36.432489,-34.934521 H 1797.2003 m 0,-2.766725 H 118.78592 c -21.717149,0 -39.31785,16.877026 -39.31785,37.701246 V 567.53646 c 0,20.815 17.600701,37.70125 39.31785,37.70125 H 1797.2003 c 21.7172,0 39.3179,-16.87703 39.3179,-37.70125 V 55.452463 c 0,-20.82422 -17.6007,-37.701246 -39.3179,-37.701246 z"
           id="path9"
           style="opacity:0.77;fill:url(#linearGradient39);stroke-width:0.941806" /><text
           class="h"
           id="text13"
           style="font-size:21.5209px;font-family:Consolas, Consolas;display:inline;fill:#ffffff;stroke-width:0.694222"
           x="107.4426"
           y="91.753975"
           transform="scale(1.0261465,0.97451972)"><tspan
             x="107.4426"
             y="91.753975"
             id="tspan13"
             style="stroke-width:0.694222">$ cd ZONE01/OUJDA/ASCII-ART-WEB</tspan></text><text
           class="h"
           id="text17"
           style="font-size:21.5209px;font-family:Consolas, Consolas;fill:#ffffff;stroke-width:0.694222"
           x="107.4426"
           y="165.96469"
           transform="scale(1.0261465,0.97451972)"><tspan
             x="107.4426"
             y="165.96469"
             id="tspan17"
             style="stroke-width:0.694222">$ go run . “BAD REQUEST<tspan
   style="font-style:normal;font-variant:normal;font-weight:normal;font-stretch:normal;font-size:21.5209px;font-family:Consolas, Consolas;-inkscape-font-specification:'Consolas, Consolas, Normal';font-variant-ligatures:normal;font-variant-caps:normal;font-variant-numeric:normal;font-variant-east-asian:normal;font-feature-settings:'case';stroke-width:0.694222"
   id="tspan67">”</tspan> standard</tspan></text><text
           xml:space="preserve"
           style="font-style:normal;font-variant:normal;font-weight:normal;font-stretch:normal;font-size:21.5209px;font-family:Consolas, Consolas;-inkscape-font-specification:'Consolas, Consolas, Normal';font-variant-ligatures:normal;font-variant-caps:normal;font-variant-numeric:normal;font-variant-east-asian:normal;letter-spacing:0.268505px;word-spacing:0.0833294px;fill:#ffffff;fill-opacity:1;stroke:none;stroke-width:72.787;stroke-dasharray:none;stroke-opacity:0.612903"
           x="111.34413"
           y="525.53052"
           id="text59-3-4"><tspan
             sodipodi:role="line"
             id="tspan59-0-5"
             style="stroke-width:72.787"
             x="111.34413"
             y="525.53052"><tspan
   style="fill:#ddafe9;stroke-width:72.787"
   id="tspan60-9-6">@ZONE01</tspan> <tspan
   style="fill:#5599ff;stroke-width:72.787"
   id="tspan61-6-7">MINGW64</tspan> <tspan
   style="fill:#ffaacc;stroke-width:72.787"
   id="tspan64">~ZONE01/OUJDA/ASCII-ART-WEB</tspan></tspan></text><text
           xml:space="preserve"
           style="font-style:normal;font-variant:normal;font-weight:normal;font-stretch:normal;font-size:21.5209px;font-family:Consolas, Consolas;-inkscape-font-specification:'Consolas, Consolas, Normal';font-variant-ligatures:normal;font-variant-caps:normal;font-variant-numeric:normal;font-variant-east-asian:normal;letter-spacing:0.268505px;word-spacing:0.0833294px;fill:#ffffff;fill-opacity:1;stroke:none;stroke-width:72.787;stroke-dasharray:none;stroke-opacity:0.612903"
           x="110.28234"
           y="553.37146"
           id="text59-3-4-6"><tspan
             sodipodi:role="line"
             id="tspan59-0-5-4"
             style="stroke-width:72.787"
             x="110.28234"
             y="553.37146">$ Error 400 | bad request </tspan></text><text
           xml:space="preserve"
           style="font-style:normal;font-variant:normal;font-weight:normal;font-stretch:normal;font-size:21.5209px;font-family:Consolas, Consolas;-inkscape-font-specification:'Consolas, Consolas, Normal';font-variant-ligatures:normal;font-variant-caps:normal;font-variant-numeric:normal;font-variant-east-asian:normal;letter-spacing:0.268504px;word-spacing:0.0833289px;fill:#ffffff;fill-opacity:1;stroke:none;stroke-width:72.787;stroke-dasharray:none;stroke-opacity:0.612903"
           x="111.34413"
           y="62.009861"
           id="text59"><tspan
             sodipodi:role="line"
             id="tspan59"
             style="stroke-width:72.787"
             x="111.34413"
             y="62.009861"><tspan
   style="fill:#ddafe9;stroke-width:72.787"
   id="tspan60">@ZONE01</tspan> <tspan
   style="fill:#5599ff;stroke-width:72.787"
   id="tspan61">MINGW64</tspan> <tspan
   style="fill:#ffaaee;stroke-width:72.787"
   id="tspan62">~</tspan></tspan></text><text
           xml:space="preserve"
           style="font-style:normal;font-variant:normal;font-weight:normal;font-stretch:normal;font-size:21.5209px;font-family:Consolas, Consolas;-inkscape-font-specification:'Consolas, Consolas, Normal';font-variant-ligatures:normal;font-variant-caps:normal;font-variant-numeric:normal;font-variant-east-asian:normal;letter-spacing:0.268504px;word-spacing:0.0833289px;fill:#ffffff;fill-opacity:1;stroke:none;stroke-width:72.787;stroke-dasharray:none;stroke-opacity:0.612903"
           x="111.34413"
           y="134.8223"
           id="text59-3"><tspan
             sodipodi:role="line"
             id="tspan59-0"
             style="stroke-width:72.787"
             x="111.34413"
             y="134.8223"><tspan
   style="fill:#ddafe9;stroke-width:72.787"
   id="tspan60-9">@ZONE01</tspan> <tspan
   style="fill:#5599ff;stroke-width:72.787"
   id="tspan61-6">MINGW64</tspan> <tspan
   style="fill:#ffaacc;stroke-width:72.787"
   id="tspan63">~ZONE01/OUJDA/ASCII-ART-WEB</tspan></tspan></text><line
           class="k"
           x1="203.52408"
           y1="200.71744"
           x2="130.39742"
           y2="200.71744"
           id="line21" /><line
           class="k"
           x1="202.95448"
           y1="385.35205"
           x2="135.54277"
           y2="385.35205"
           id="line22" /><line
           class="k"
           x1="379.48184"
           y1="348.42325"
           x2="306.35516"
           y2="348.42325"
           id="line23" /><line
           class="k"
           x1="549.72467"
           y1="385.35205"
           x2="462.88971"
           y2="385.35205"
           id="line24" /><line
           class="k"
           x1="549.72467"
           y1="199.55927"
           x2="462.88971"
           y2="199.55927"
           id="line25" /><line
           class="k"
           x1="532.58929"
           y1="348.42325"
           x2="496.02121"
           y2="348.42325"
           id="line26" /><line
           class="k"
           x1="791.9549"
           y1="274.5751"
           x2="755.3869"
           y2="274.5751"
           id="line27" /><line
           class="k"
           x1="791.9549"
           y1="237.64627"
           x2="755.3869"
           y2="237.64627"
           id="line28" /><line
           class="k"
           x1="807.95111"
           y1="199.55927"
           x2="722.25531"
           y2="199.55927"
           id="line29" /><line
           class="k"
           x1="772.52222"
           y1="311.49445"
           x2="757.67474"
           y2="311.49445"
           id="line30" /><line
           class="k"
           x1="532.58929"
           y1="237.64627"
           x2="496.02121"
           y2="237.64627"
           id="line31" /><line
           class="k"
           x1="737.10284"
           y1="385.35205"
           x2="722.25531"
           y2="385.35205"
           id="line32" /><line
           class="k"
           x1="827.37433"
           y1="385.35205"
           x2="810.22943"
           y2="385.35205"
           id="line33" /><line
           class="k"
           x1="948.47998"
           y1="273.4169"
           x2="911.92145"
           y2="273.4169"
           id="line34" /><line
           class="k"
           x1="948.47998"
           y1="311.49445"
           x2="911.92145"
           y2="311.49445"
           id="line35" /><line
           class="k"
           x1="981.62097"
           y1="348.42325"
           x2="913.06055"
           y2="348.42325"
           id="line36" /><line
           class="k"
           x1="981.62097"
           y1="236.4881"
           x2="913.06055"
           y2="236.4881"
           id="line37" /><line
           class="k"
           x1="981.62097"
           y1="199.55927"
           x2="878.78992"
           y2="199.55927"
           id="line38" /><line
           class="k"
           x1="1121.0107"
           y1="199.55927"
           x2="1051.311"
           y2="199.55927"
           id="line39" /><line
           class="k"
           x1="1102.7267"
           y1="236.4881"
           x2="1065.0289"
           y2="236.4881"
           id="line40" /><line
           class="k"
           x1="1103.8752"
           y1="348.42325"
           x2="1066.1681"
           y2="348.42325"
           id="line41" /><line
           class="k"
           x1="1138.146"
           y1="385.35205"
           x2="1121.0107"
           y2="385.35205"
           id="line42" /><line
           class="k"
           x1="1293.5414"
           y1="199.55927"
           x2="1276.406"
           y2="199.55927"
           id="line43" /><line
           class="k"
           x1="1205.5577"
           y1="199.55927"
           x2="1188.4224"
           y2="199.55927"
           id="line44" /><line
           class="k"
           x1="1725.4376"
           y1="385.35205"
           x2="1708.2928"
           y2="385.35205"
           id="line45" /><line
           class="k"
           x1="1446.6489"
           y1="199.55927"
           x2="1343.8177"
           y2="199.55927"
           id="line46" /><line
           class="k"
           x1="1777.9924"
           y1="199.55927"
           x2="1656.8773"
           y2="199.55927"
           id="line47" /><line
           class="k"
           x1="1605.4617"
           y1="199.55927"
           x2="1518.6268"
           y2="199.55927"
           id="line48" /><line
           class="k"
           x1="1605.4617"
           y1="236.4881"
           x2="1534.6229"
           y2="236.4881"
           id="line49" /><line
           class="k"
           x1="1259.2612"
           y1="348.42325"
           x2="1221.5538"
           y2="348.42325"
           id="line50" /><line
           class="k"
           x1="1415.7958"
           y1="311.49445"
           x2="1378.0884"
           y2="311.49445"
           id="line51" /><line
           class="k"
           x1="1415.7958"
           y1="273.4169"
           x2="1378.0884"
           y2="273.4169"
           id="line52" /><line
           class="k"
           x1="1448.9271"
           y1="236.4881"
           x2="1378.0884"
           y2="236.4881"
           id="line53" /><line
           class="k"
           x1="1448.9271"
           y1="348.42325"
           x2="1378.0884"
           y2="348.42325"
           id="line54" /><line
           class="k"
           x1="1570.0424"
           y1="348.42325"
           x2="1499.2036"
           y2="348.42325"
           id="line55" /><line
           class="k"
           x1="1581.4722"
           y1="311.49445"
           x2="1518.6268"
           y2="311.49445"
           id="line56" /><line
           class="k"
           x1="1586.0386"
           y1="273.4169"
           x2="1536.9109"
           y2="273.4169"
           id="line57" /><line
           class="k"
           x1="1691.1575"
           y1="236.4881"
           x2="1655.7382"
           y2="236.4881"
           id="line58" /><line
           class="k"
           x1="1777.9924"
           y1="236.4881"
           x2="1742.5731"
           y2="236.4881"
           id="line59" /><line
           class="k"
           x1="125.56534"
           y1="239.95312"
           x2="125.62229"
           y2="209.00507"
           id="line60" /><line
           class="k"
           x1="126.0305"
           y1="277.26169"
           x2="126.08746"
           y2="246.31363"
           id="line61" /><line
           class="k"
           x1="126.0305"
           y1="314.00064"
           x2="126.08746"
           y2="283.05258"
           id="line62" /><line
           class="k"
           x1="126.0305"
           y1="350.92944"
           x2="126.08746"
           y2="319.98141"
           id="line63" /><line
           class="k"
           x1="126.0305"
           y1="388.32346"
           x2="126.08746"
           y2="357.3754"
           id="line64" /><line
           class="k"
           x1="160.30121"
           y1="351.39465"
           x2="160.36766"
           y2="320.44656"
           id="line65" /><line
           class="k"
           x1="228.8616"
           y1="351.39465"
           x2="228.91858"
           y2="320.44656"
           id="line66" /><line
           class="k"
           x1="160.30121"
           y1="277.58447"
           x2="160.36766"
           y2="246.6364"
           id="line67" /><line
           class="k"
           x1="228.8616"
           y1="277.58447"
           x2="228.91858"
           y2="246.6364"
           id="line68" /><line
           class="k"
           x1="453.89957"
           y1="388.87405"
           x2="453.96603"
           y2="357.92599"
           id="line69" /><line
           class="k"
           x1="453.89957"
           y1="352.08765"
           x2="453.96603"
           y2="321.13956"
           id="line70" /><line
           class="k"
           x1="453.89957"
           y1="315.15881"
           x2="453.96603"
           y2="284.21075"
           id="line71" /><line
           class="k"
           x1="453.89957"
           y1="278.23001"
           x2="453.96603"
           y2="247.28194"
           id="line72" /><line
           class="k"
           x1="453.89957"
           y1="240.14301"
           x2="453.96603"
           y2="209.19495"
           id="line73" /><line
           class="k"
           x1="488.17981"
           y1="277.26169"
           x2="488.23676"
           y2="246.31363"
           id="line74" /><line
           class="k"
           x1="540.7345"
           y1="277.26169"
           x2="540.80096"
           y2="246.31363"
           id="line75" /><line
           class="k"
           x1="488.17981"
           y1="315.20627"
           x2="488.23676"
           y2="284.25824"
           id="line76" /><line
           class="k"
           x1="540.7345"
           y1="315.20627"
           x2="540.80096"
           y2="284.25824"
           id="line77" /><line
           class="k"
           x1="488.17981"
           y1="352.12561"
           x2="488.23676"
           y2="321.18704"
           id="line78" /><line
           class="k"
           x1="540.7345"
           y1="352.12561"
           x2="540.80096"
           y2="321.18704"
           id="line79" /><line
           class="k"
           x1="575.01471"
           y1="352.12561"
           x2="575.07172"
           y2="321.18704"
           id="line80" /><line
           class="k"
           x1="575.01471"
           y1="315.20627"
           x2="575.07172"
           y2="284.25824"
           id="line81" /><line
           class="k"
           x1="575.01471"
           y1="277.11929"
           x2="575.07172"
           y2="246.17123"
           id="line82" /><line
           class="k"
           x1="712.48676"
           y1="388.50385"
           x2="712.55322"
           y2="357.55576"
           id="line83" /><line
           class="k"
           x1="712.48676"
           y1="351.57501"
           x2="712.55322"
           y2="320.62695"
           id="line84" /><line
           class="k"
           x1="712.48676"
           y1="314.64618"
           x2="712.55322"
           y2="283.69815"
           id="line85" /><line
           class="k"
           x1="712.58167"
           y1="276.33136"
           x2="712.63867"
           y2="245.39279"
           id="line86" /><line
           class="k"
           x1="712.58167"
           y1="239.40253"
           x2="712.63867"
           y2="208.46397"
           id="line87" /><line
           class="k"
           x1="870.25543"
           y1="240.56071"
           x2="870.3219"
           y2="209.61264"
           id="line88" /><line
           class="k"
           x1="870.25543"
           y1="276.33136"
           x2="870.3219"
           y2="245.39279"
           id="line89" /><line
           class="k"
           x1="870.25543"
           y1="314.41833"
           x2="870.3219"
           y2="283.47028"
           id="line90" /><line
           class="k"
           x1="870.25543"
           y1="351.34717"
           x2="870.3219"
           y2="320.39911"
           id="line91" /><line
           class="k"
           x1="870.25543"
           y1="388.27597"
           x2="870.3219"
           y2="357.32794"
           id="line92" /><line
           class="k"
           x1="903.3869"
           y1="350.189"
           x2="903.45337"
           y2="319.24091"
           id="line93" /><line
           class="k"
           x1="903.3869"
           y1="276.33136"
           x2="903.45337"
           y2="245.39279"
           id="line94" /><line
           class="k"
           x1="955.95117"
           y1="314.41833"
           x2="956.00812"
           y2="283.47028"
           id="line95" /><line
           class="k"
           x1="991.37054"
           y1="240.56071"
           x2="991.42755"
           y2="209.61264"
           id="line96" /><line
           class="k"
           x1="991.37054"
           y1="388.27597"
           x2="991.42755"
           y2="357.32794"
           id="line97" /><line
           class="k"
           x1="834.83606"
           y1="276.33136"
           x2="834.89301"
           y2="245.39279"
           id="line98" /><line
           class="k"
           x1="1024.8628"
           y1="277.48953"
           x2="1024.9293"
           y2="246.54146"
           id="line99" /><line
           class="k"
           x1="1024.8628"
           y1="314.41833"
           x2="1024.9293"
           y2="283.47028"
           id="line100" /><line
           class="k"
           x1="1024.8628"
           y1="351.34717"
           x2="1024.9293"
           y2="320.39911"
           id="line101" /><line
           class="k"
           x1="1060.2822"
           y1="277.48953"
           x2="1060.3486"
           y2="246.54146"
           id="line102" /><line
           class="k"
           x1="1060.2822"
           y1="314.41833"
           x2="1060.3486"
           y2="283.47028"
           id="line103" /><line
           class="k"
           x1="1060.2822"
           y1="351.34717"
           x2="1060.3486"
           y2="320.39911"
           id="line104" /><line
           class="k"
           x1="1111.6978"
           y1="351.34717"
           x2="1111.7643"
           y2="320.39911"
           id="line105" /><line
           class="k"
           x1="1111.6978"
           y1="314.41833"
           x2="1111.7643"
           y2="283.47028"
           id="line106" /><line
           class="k"
           x1="1111.6978"
           y1="277.48953"
           x2="1111.7643"
           y2="246.54146"
           id="line107" /><line
           class="k"
           x1="1145.9779"
           y1="277.48953"
           x2="1146.0444"
           y2="246.54146"
           id="line108" /><line
           class="k"
           x1="1145.9779"
           y1="314.41833"
           x2="1146.0444"
           y2="283.47028"
           id="line109" /><line
           class="k"
           x1="1145.9779"
           y1="351.34717"
           x2="1146.0444"
           y2="320.39911"
           id="line110" /><line
           class="k"
           x1="1180.2582"
           y1="240.56071"
           x2="1180.3246"
           y2="209.61264"
           id="line111" /><line
           class="k"
           x1="1180.2582"
           y1="277.48953"
           x2="1180.3246"
           y2="246.54146"
           id="line112" /><line
           class="k"
           x1="1180.2582"
           y1="315.56702"
           x2="1180.3246"
           y2="284.62845"
           id="line113" /><line
           class="k"
           x1="1180.2582"
           y1="351.34717"
           x2="1180.3246"
           y2="320.39911"
           id="line114" /><line
           class="k"
           x1="1214.5385"
           y1="277.48953"
           x2="1214.5953"
           y2="246.54146"
           id="line115" /><line
           class="k"
           x1="1214.5385"
           y1="315.56702"
           x2="1214.5953"
           y2="284.62845"
           id="line116" /><line
           class="k"
           x1="1214.5385"
           y1="352.49588"
           x2="1214.5953"
           y2="321.54779"
           id="line117" /><line
           class="k"
           x1="1265.9539"
           y1="351.34717"
           x2="1266.0109"
           y2="320.39911"
           id="line118" /><line
           class="k"
           x1="1265.9539"
           y1="314.41833"
           x2="1266.0109"
           y2="283.47028"
           id="line119" /><line
           class="k"
           x1="1265.9539"
           y1="277.48953"
           x2="1266.0109"
           y2="246.54146"
           id="line120" /><line
           class="k"
           x1="1214.5385"
           y1="240.56071"
           x2="1214.5953"
           y2="209.61264"
           id="line121" /><line
           class="k"
           x1="1265.9539"
           y1="240.56071"
           x2="1266.0109"
           y2="209.61264"
           id="line122" /><line
           class="k"
           x1="1300.2247"
           y1="240.56071"
           x2="1300.2911"
           y2="209.61264"
           id="line123" /><line
           class="k"
           x1="1300.9082"
           y1="277.48953"
           x2="1300.9746"
           y2="246.54146"
           id="line124" /><line
           class="k"
           x1="1300.9082"
           y1="314.41833"
           x2="1300.9746"
           y2="283.47028"
           id="line125" /><line
           class="k"
           x1="1300.9082"
           y1="351.34717"
           x2="1300.9746"
           y2="320.39911"
           id="line126" /><line
           class="k"
           x1="1275.2573"
           y1="385.35205"
           x2="1207.8456"
           y2="385.35205"
           id="line127" /><line
           class="k"
           x1="1336.5648"
           y1="240.56071"
           x2="1336.6218"
           y2="209.61264"
           id="line128" /><line
           class="k"
           x1="1336.5648"
           y1="277.48953"
           x2="1336.6218"
           y2="246.54146"
           id="line129" /><line
           class="k"
           x1="1336.5648"
           y1="315.56702"
           x2="1336.6218"
           y2="284.62845"
           id="line130" /><line
           class="k"
           x1="1336.5648"
           y1="352.49588"
           x2="1336.6218"
           y2="321.54779"
           id="line131" /><line
           class="k"
           x1="1422.2511"
           y1="314.41833"
           x2="1422.3176"
           y2="283.47028"
           id="line132" /><line
           class="k"
           x1="1370.8356"
           y1="350.189"
           x2="1370.902"
           y2="319.24091"
           id="line133" /><line
           class="k"
           x1="1336.5648"
           y1="389.42468"
           x2="1336.6218"
           y2="358.47662"
           id="line134" /><line
           class="k"
           x1="1457.6705"
           y1="240.56071"
           x2="1457.7369"
           y2="209.61264"
           id="line135" /><line
           class="k"
           x1="1370.8356"
           y1="277.48953"
           x2="1370.902"
           y2="246.54146"
           id="line136" /><line
           class="k"
           x1="1613.569"
           y1="240.56071"
           x2="1613.6259"
           y2="209.61264"
           id="line137" /><line
           class="k"
           x1="1646.7006"
           y1="240.56071"
           x2="1646.767"
           y2="209.61264"
           id="line138" /><line
           class="k"
           x1="1786.0902"
           y1="240.56071"
           x2="1786.1567"
           y2="209.61264"
           id="line139" /><line
           class="k"
           x1="1700.4039"
           y1="277.48953"
           x2="1700.4609"
           y2="246.54146"
           id="line140" /><line
           class="k"
           x1="1700.4039"
           y1="314.41833"
           x2="1700.4609"
           y2="283.47028"
           id="line141" /><line
           class="k"
           x1="1700.4039"
           y1="351.34717"
           x2="1700.4609"
           y2="320.39911"
           id="line142" /><line
           class="k"
           x1="1700.4039"
           y1="389.42468"
           x2="1700.4609"
           y2="358.47662"
           id="line143" /><line
           class="k"
           x1="1733.5354"
           y1="277.48953"
           x2="1733.6018"
           y2="246.54146"
           id="line144" /><line
           class="k"
           x1="1733.5354"
           y1="314.41833"
           x2="1733.6018"
           y2="283.47028"
           id="line145" /><line
           class="k"
           x1="1733.5354"
           y1="351.34717"
           x2="1733.6018"
           y2="320.39911"
           id="line146" /><line
           class="k"
           x1="1491.3147"
           y1="277.48953"
           x2="1491.3717"
           y2="246.54146"
           id="line147" /><line
           class="k"
           x1="1733.5354"
           y1="389.42468"
           x2="1733.6018"
           y2="358.47662"
           id="line148" /><line
           class="k"
           x1="1613.569"
           y1="351.34717"
           x2="1613.6259"
           y2="320.39911"
           id="line149" /><line
           class="k"
           x1="1202.2445"
           y1="389.42468"
           x2="1190.7102"
           y2="358.8089"
           id="line150" /><line
           class="k"
           x1="1134.9088"
           y1="239.24113"
           x2="1123.384"
           y2="208.62534"
           id="line151" /><line
           class="k"
           x1="1152.0536"
           y1="388.1051"
           x2="1140.5193"
           y2="357.48932"
           id="line152" /><line
           class="k"
           x1="1117.7734"
           y1="389.26328"
           x2="1106.2391"
           y2="358.64749"
           id="line153" /><line
           class="k"
           x1="1046.9347"
           y1="389.26328"
           x2="1035.4004"
           y2="358.64749"
           id="line154" /><line
           class="k"
           x1="1036.4636"
           y1="238.79495"
           x2="1048.3397"
           y2="208.62534"
           id="line155" /><line
           class="k"
           x1="1278.9692"
           y1="387.88678"
           x2="1290.8358"
           y2="357.71716"
           id="line156" /><line
           class="k"
           x1="1590.434"
           y1="387.88678"
           x2="1602.3101"
           y2="357.71716"
           id="line157" /><line
           class="k"
           x1="1504.7382"
           y1="240.17149"
           x2="1516.6143"
           y2="210.00188"
           id="line158" /><line
           class="k"
           x1="1514.4308"
           y1="314.24747"
           x2="1502.8965"
           y2="283.64114"
           id="line159" /><line
           class="k"
           x1="1602.4049"
           y1="314.24747"
           x2="1590.8801"
           y2="283.64114"
           id="line160" /><line
           class="k"
           x1="788.80322"
           y1="352.33447"
           x2="777.26886"
           y2="321.71866"
           id="line161" /><line
           class="k"
           x1="804.79932"
           y1="389.26328"
           x2="793.26501"
           y2="358.64749"
           id="line162" /><line
           class="k"
           x1="824.2226"
           y1="239.24113"
           x2="812.68823"
           y2="208.62534"
           id="line163" /><line
           class="k"
           x1="812.79266"
           y1="314.02911"
           x2="824.66876"
           y2="283.8595"
           id="line164" /><line
           class="k"
           x1="824.49786"
           y1="352.33447"
           x2="812.9635"
           y2="321.71866"
           id="line165" /><line
           class="k"
           x1="840.49402"
           y1="389.26328"
           x2="828.95972"
           y2="358.64749"
           id="line166" /><line
           class="k"
           x1="747.8587"
           y1="276.33136"
           x2="747.92517"
           y2="245.39279"
           id="line167" /><line
           class="k"
           x1="747.8587"
           y1="351.34717"
           x2="747.92517"
           y2="320.39911"
           id="line168" /><line
           class="k"
           x1="747.8587"
           y1="389.42468"
           x2="747.92517"
           y2="358.47662"
           id="line169" /><line
           class="k"
           x1="562.98676"
           y1="239.24113"
           x2="551.45245"
           y2="208.62534"
           id="line170" /><line
           class="k"
           x1="357.82767"
           y1="239.24113"
           x2="346.29337"
           y2="208.62534"
           id="line171" /><line
           class="k"
           x1="372.67517"
           y1="276.16995"
           x2="361.15033"
           y2="245.55415"
           id="line172" /><line
           class="k"
           x1="390.9592"
           y1="315.40564"
           x2="379.42487"
           y2="284.78986"
           id="line173" /><line
           class="k"
           x1="408.09454"
           y1="351.1763"
           x2="396.56973"
           y2="320.56049"
           id="line174" /><line
           class="k"
           x1="425.23941"
           y1="388.1051"
           x2="413.70508"
           y2="357.48932"
           id="line175" /><line
           class="k"
           x1="356.67899"
           y1="315.40564"
           x2="345.15417"
           y2="284.78986"
           id="line176" /><line
           class="k"
           x1="390.9592"
           y1="388.1051"
           x2="379.42487"
           y2="357.48932"
           id="line177" /><line
           class="k"
           x1="218.42851"
           y1="240.39932"
           x2="206.90369"
           y2="209.78352"
           id="line178" /><line
           class="k"
           x1="554.57568"
           y1="387.88678"
           x2="566.45178"
           y2="357.71716"
           id="line179" /><line
           class="k"
           x1="328.06628"
           y1="240.17149"
           x2="339.94235"
           y2="210.00188"
           id="line180" /><line
           class="k"
           x1="310.93094"
           y1="275.94211"
           x2="322.80701"
           y2="245.77251"
           id="line181" /><line
           class="k"
           x1="293.79559"
           y1="312.87094"
           x2="305.67166"
           y2="282.70132"
           id="line182" /><line
           class="k"
           x1="325.78787"
           y1="314.02911"
           x2="337.66397"
           y2="283.8595"
           id="line183" /><line
           class="k"
           x1="276.65073"
           y1="349.79974"
           x2="288.52682"
           y2="319.63013"
           id="line184" /><line
           class="k"
           x1="259.51538"
           y1="387.88678"
           x2="271.39145"
           y2="357.71716"
           id="line185" /><line
           class="k"
           x1="293.79559"
           y1="387.88678"
           x2="305.67166"
           y2="357.71716"
           id="line186" /><line
           class="k"
           x1="206.96063"
           y1="389.03546"
           x2="218.83672"
           y2="358.86584"
           id="line187" /><line
           class="k"
           x1="410.33499"
           y1="385.35205"
           x2="395.478"
           y2="385.35205"
           id="line188" /><line
           class="k"
           x1="286.93195"
           y1="385.35205"
           x2="272.08447"
           y2="385.35205"
           id="line189" /><line
           class="k"
           x1="184.10085"
           y1="311.49445"
           x2="169.24387"
           y2="311.49445"
           id="line190" /><line
           class="k"
           x1="184.10085"
           y1="236.4881"
           x2="169.24387"
           y2="236.4881"
           id="line191" /><line
           class="k"
           x1="184.10085"
           y1="348.42325"
           x2="169.24387"
           y2="348.42325"
           id="line192" /><line
           class="k"
           x1="184.10085"
           y1="273.4169"
           x2="169.24387"
           y2="273.4169"
           id="line193" /><path
           class="j"
           d="m 190.29045,277.61294 c 12.03747,-11.29699 5.69597,-27.02734 -1.68031,-32.05878"
           id="path193" /><path
           class="j"
           d="m 190.57525,353.19836 c 12.03747,-11.297 5.69596,-27.02734 -1.68031,-32.05878"
           id="path194" /><path
           class="j"
           d="m 796.77752,277.06233 c 11.34446,-10.7179 5.47762,-25.48943 -1.405,-30.1886"
           id="path195" /><path
           class="j"
           d="m 1574.0105,350.35037 c 10.9743,-10.33817 5.2593,-24.64452 -1.4145,-29.20129"
           id="path196" /><path
           class="j"
           d="m 1532.6579,247.13954 c -11.8287,9.47428 -6.8637,24.51162 -0.3228,29.74242"
           id="path197" /><polyline
           class="j"
           points="147.17 346.76 133.35 354.19 147.17 362.66"
           id="polyline197"
           transform="matrix(0.94932703,0,0,0.94932703,79.807774,-36.149139)" /><g
           id="g10"
           transform="matrix(0.94932703,0,0,0.94932703,79.807774,-36.149139)"><path
             id="text197"
             style="font-size:275.28px;font-family:EdwardianScriptITC, 'Edwardian Script ITC';fill:url(#linearGradient9)"
             class="g"
             transform="matrix(0.86,0,0,1,564.43,551.97)"
             d="m 174.46945,-42.071601 q -0.13441,0.403242 -1.34414,2.150625 l -5.7798,7.930429 Q 142.07566,3.0915234 129.9784,3.0915234 q -6.31746,0 -10.34988,-4.7044921 -4.03243,-4.7044922 -4.03243,-12.0972653 0,-7.527188 5.10774,-16.264102 0.9409,-1.612969 9.81222,-14.382304 11.29079,-16.129688 11.29079,-21.103008 0,-5.510977 -5.51098,-5.510977 -17.74266,0 -60.889571,72.8524219 -2.688282,-0.5376563 -7.392774,-0.5376563 -5.510976,0 -9.408984,0.5376563 L 77.691328,-28.361367 q 18.683554,-29.839922 18.683554,-36.560625 0,-6.048633 -4.97332,-6.048633 -7.392773,0 -24.194531,21.237422 -16.801758,21.237422 -33.334687,51.6149999 -3.091524,-0.5376563 -7.93043,-0.5376563 -5.242148,0 -9.140156,0.5376563 L 36.022969,-28.361367 q 19.893281,-31.184062 19.893281,-38.576836 0,-4.032422 -3.091524,-4.032422 -6.586289,0 -27.286054,28.899024 -1.344141,1.881796 -2.150625,1.881796 -0.537656,-0.134414 -0.537656,-0.806484 0,-1.209726 12.366093,-16.801758 12.097266,-15.188789 18.683555,-15.188789 4.30125,0 7.392773,4.166836 3.091524,4.032422 3.091524,9.677813 0,7.796015 -7.93043,21.640664 24.194531,-35.485313 36.022969,-35.485313 5.64539,0 9.274565,4.570078 3.62918,4.570079 3.62918,11.425196 0,7.661601 -7.123941,19.490039 25.538671,-35.485313 38.308011,-35.485313 5.7798,0 9.67781,4.973321 4.03242,4.97332 4.03242,12.097265 0,8.333672 -6.58629,19.490039 -0.13441,0.134414 -11.55961,17.205 -6.58629,9.6778126 -6.58629,14.785547 0,5.5109765 5.51098,5.5109765 10.4843,0 34.67883,-33.8723435 l 4.16683,-5.779805 2.41946,-2.957109 q 0.67207,-1.344141 1.34414,-1.344141 0.80648,0 0.80648,0.806485 z m 68.01351,0 q 0,0.403242 -2.41945,3.494765 l -5.77981,7.25836 q -27.82371,34.4099994 -47.71699,34.4099994 -9.40898,0 -15.86086,-6.7207031 -6.31746,-6.8551173 -6.31746,-17.0705863 0,-24.194531 33.73793,-42.609257 17.74266,-9.677813 28.89902,-9.677813 4.83891,0 8.19926,2.95711 3.49477,2.822695 3.49477,6.989531 0,9.677812 -12.63492,16.53293 -12.63493,6.720703 -42.20602,12.634921 -9.14016,13.844649 -9.14016,23.119219 0,11.55960937 12.50051,11.55960937 21.23742,0 52.01824,-41.53394537 1.61297,-2.150625 2.68829,-2.150625 0.53765,0.134414 0.53765,0.806485 z m -11.29078,-24.866602 q 0,-4.30125 -4.70449,-4.30125 -7.12395,0 -18.81797,9.946641 -11.55961,9.812226 -22.71598,25.538672 19.35563,-4.973321 32.79703,-13.979063 13.44141,-9.140156 13.44141,-17.205 z m 60.88957,-6.048633 -1.07531,2.016211 H 273.3982 l -29.97434,51.211758 q -5.51097,9.27457 -5.51097,14.7855467 0,6.0486328 6.31746,6.0486328 12.23168,0 41.26511,-42.6092575 0.9409,-1.344141 1.61297,-1.344141 0.80649,0 0.80649,0.806485 -0.13442,0.403242 -1.34414,2.150625 l -5.77981,7.930429 q -25.26984,35.0820704 -38.03918,35.0820704 -6.31746,0 -10.61871,-4.5700781 -4.16683,-4.5700781 -4.16683,-11.4251953 0,-8.064844 7.12394,-20.162109 l 22.58156,-37.904766 h -13.71023 l 1.34414,-2.016211 h 13.44141 l 15.72644,-26.076328 q 4.03242,1.075313 7.6616,1.075313 3.7636,0 7.79602,-1.075313 l -15.45762,26.076328 z m 81.72376,30.646407 q 0,1.075312 -1.34414,2.419453 l -5.7798,7.930429 q -25.26985,35.0820704 -37.63594,35.0820704 -6.45188,0 -10.61871,-4.5700781 -4.03242,-4.7044921 -4.03242,-11.6940233 0,-9.408984 10.21546,-24.597773 15.99528,-23.522461 15.99528,-27.958125 0,-5.242149 -5.51098,-5.242149 -8.06484,0 -22.0439,15.86086 -13.44141,15.188789 -36.96387,57.5292181 -4.03242,-0.8064844 -6.85512,-0.8064844 -2.95711,0 -7.93043,0.8064844 l 19.75887,-35.7541401 q 4.03242,-7.661602 12.36609,-22.581563 4.43567,-7.258359 27.28606,-46.23844 l 20.43093,-34.67883 q 4.03243,0.80649 6.85512,0.80649 5.37656,0 10.21547,-1.34414 -13.97906,22.44715 -41.66836,67.20703 -0.80648,1.34414 -20.83418,34.678828 25.26984,-37.501524 39.92098,-37.501524 5.7798,0 9.81222,4.973321 4.16684,4.97332 4.16684,12.097265 0,9.274571 -11.82844,26.748399 -13.17258,19.4900385 -13.17258,24.4633588 0,5.7798047 5.77981,5.7798047 10.4843,0 34.67883,-33.8723435 l 4.16683,-5.779805 2.41946,-2.957109 q 0.67207,-1.344141 1.61296,-1.344141 0.53766,0 0.53766,0.537657 z m 79.84193,0 q 0,2.150624 -7.93043,10.081054 -11.82843,11.828438 -21.77507,11.828438 -4.16684,0 -7.39278,-1.612969 -17.74265,25.1354294 -33.33469,25.1354294 -8.06484,0 -13.84464,-6.586289 -5.64539,-6.7207034 -5.64539,-15.9952734 0,-20.699766 27.15164,-39.920976 19.08679,-13.575821 31.45289,-13.575821 11.55961,0 11.55961,12.366094 0,15.457617 -16.26411,37.232695 2.68829,1.612969 6.04864,1.612969 6.04863,0 14.11347,-5.645391 8.06485,-5.64539 13.17258,-13.57582 1.47856,-1.881797 2.15063,-1.881797 0.53765,0 0.53765,0.537657 z m -21.77507,-18.011485 q 0,-10.887539 -9.81223,-10.887539 -12.23168,0 -29.83992,23.388047 -17.60825,23.388047 -17.60825,39.3833201 0,9.27457027 8.87133,9.27457027 14.51672,0 31.72172,-23.92570337 -3.89801,-4.30125 -3.89801,-8.871328 0,-6.586289 5.24215,-13.57582 5.24215,-6.989531 10.21547,-6.989531 2.15063,0 2.95711,2.688281 2.15063,-4.704492 2.15063,-10.484297 z m 144.0919,-75.675116 q -50.40528,80.11078 -63.57785,102.423515 -13.307,22.715976 -13.307,28.6301947 0,6.0486328 5.51098,6.0486328 12.23168,0 41.53395,-42.6092575 0.80648,-1.344141 1.47855,-1.344141 0.80648,0 0.80648,0.806485 -0.13441,0.403242 -1.34414,2.150625 l -5.7798,7.930429 q -25.40426,35.0820704 -37.50152,35.0820704 -6.18305,0 -10.08106,-4.5700781 -3.89801,-4.7044921 -3.89801,-11.9628513 0,-7.25836 4.83891,-16.801758 -23.52246,33.3346874 -34.94766,33.3346874 -7.12394,0 -11.96285,-6.0486328 -4.8389,-6.1830468 -4.8389,-15.4576166 0,-22.178321 27.55488,-40.189805 21.90949,-14.382305 34.41,-14.382305 8.33367,0 8.33367,8.064844 0,3.763594 -2.28504,8.468086 l 47.98582,-80.379614 q 4.43567,1.34415 8.73692,1.34415 1.07531,0 8.33367,-0.53766 z m -64.78758,72.180351 q 0,-7.123946 -6.58629,-7.123946 -12.09727,0 -31.99055,24.194531 -19.75886,24.060118 -19.75886,38.8456643 0,9.0057422 7.39277,9.0057422 10.75312,0 36.96387,-37.3671095 13.97906,-20.162109 13.97906,-27.554882 z m 193.82507,21.775078 q 0,2.822695 -19.49004,26.076328 -15.99527,19.0867964 -25.13543,19.0867964 -6.04863,0 -10.21547,-4.7044921 -4.03242,-4.7044922 -4.03242,-11.5596093 0,-6.048633 2.41946,-11.156367 2.55386,-5.242149 13.03816,-20.565352 10.88754,-16.129687 10.88754,-20.565351 0,-5.510977 -5.77981,-5.510977 -19.62445,0 -60.48632,72.8524219 -6.58629,-0.5376563 -7.93043,-0.5376563 -4.7045,0 -8.87133,0.5376563 l 20.96859,-33.2002729 q 17.87707,-28.495782 17.87707,-35.619727 0,-4.032422 -3.36035,-4.032422 -6.85512,0 -27.01723,28.899024 -1.20972,1.747382 -1.88179,1.881796 -0.67207,0 -0.80649,-0.806484 0.13442,-0.67207 0.53766,-1.075312 l 2.55387,-3.360352 q 20.56535,-27.554883 27.68929,-27.554883 4.57008,0 7.79602,4.166836 3.22594,4.166836 3.22594,9.946641 0,8.6025 -10.08106,23.925703 15.86086,-21.909492 24.32895,-29.974336 8.6025,-8.064844 15.86086,-8.064844 5.91422,0 9.94664,4.838907 4.03242,4.838906 4.03242,11.962851 0,9.005742 -12.36609,27.554883 -12.63493,18.9523825 -12.63493,24.194531 0,5.5109765 5.51098,5.5109765 11.96285,0 41.26512,-42.6092575 0.67207,-1.344141 1.34414,-1.344141 0.80648,0 0.80648,0.806485 z m 79.57311,-0.268828 q 0,2.150624 -7.93043,10.081054 -11.82843,11.828438 -21.77508,11.828438 -4.16683,0 -7.39277,-1.612969 -17.74265,25.1354294 -33.33469,25.1354294 -8.06484,0 -13.84464,-6.586289 -5.64539,-6.7207034 -5.64539,-15.9952734 0,-20.699766 27.15164,-39.920976 19.08679,-13.575821 31.45289,-13.575821 11.55961,0 11.55961,12.366094 0,15.457617 -16.26411,37.232695 2.68829,1.612969 6.04864,1.612969 6.04863,0 14.11347,-5.645391 8.06485,-5.64539 13.17258,-13.57582 1.47856,-1.881797 2.15063,-1.881797 0.53765,0 0.53765,0.537657 z m -21.77508,-18.011485 q 0,-10.887539 -9.81222,-10.887539 -12.23168,0 -29.83992,23.388047 -17.60825,23.388047 -17.60825,39.3833201 0,9.27457027 8.87133,9.27457027 14.51672,0 31.72172,-23.92570337 -3.89801,-4.30125 -3.89801,-8.871328 0,-6.586289 5.24215,-13.57582 5.24215,-6.989531 10.21547,-6.989531 2.15063,0 2.95711,2.688281 2.15062,-4.704492 2.15062,-10.484297 z m 71.64273,-12.634922 -1.07532,2.016211 h -17.60824 l -29.97433,51.211758 q -5.51098,9.27457 -5.51098,14.7855467 0,6.0486328 6.31746,6.0486328 12.23168,0 41.26512,-42.6092575 0.9409,-1.344141 1.61297,-1.344141 0.80648,0 0.80648,0.806485 -0.13441,0.403242 -1.34414,2.150625 l -5.7798,7.930429 q -25.26985,35.0820704 -38.03918,35.0820704 -6.31746,0 -10.61871,-4.5700781 -4.16684,-4.5700781 -4.16684,-11.4251953 0,-8.064844 7.12394,-20.162109 l 22.58157,-37.904766 h -13.71024 l 1.34414,-2.016211 h 13.44141 l 15.72644,-26.076328 q 4.03243,1.075313 7.66161,1.075313 3.76359,0 7.79601,-1.075313 l -15.45762,26.076328 z m 138.98414,30.915235 q 0,2.822695 -19.62446,26.076328 -15.86086,19.0867964 -25.00101,19.0867964 -6.18305,0 -10.08106,-4.5700781 -3.898,-4.7044921 -3.898,-11.6940233 0,-7.258359 4.30125,-15.726445 -13.44141,18.817968 -20.56536,25.4042574 -7.12394,6.586289 -13.84464,6.586289 -7.12395,0 -11.96286,-6.0486328 -4.8389,-6.1830468 -4.8389,-15.4576166 0,-25.8075 36.42621,-45.700782 15.99527,-8.871328 25.8075,-8.871328 8.33367,0 8.33367,8.064844 0,2.285039 -1.07531,6.048633 l 6.85512,-13.038164 q 4.03242,0.940898 7.12394,0.940898 3.62918,0 9.40899,-0.940898 l -23.79129,39.38332 q -12.3661,20.699766 -12.3661,27.2860546 0,6.3174609 5.24215,6.3174609 5.37656,0 17.205,-12.2316795 11.82844,-12.366094 24.06012,-30.377578 0.80648,-1.344141 1.47855,-1.344141 0.80649,0 0.80649,0.806485 z m -36.96387,-22.312735 q 0,-6.586289 -6.04863,-6.586289 -12.3661,0 -32.52821,24.194531 -20.02769,24.194532 -20.02769,39.1144925 0,8.736914 7.79601,8.736914 9.27458,0 32.12497,-30.7808205 18.68355,-25.269843 18.68355,-34.678828 z m 107.80011,-72.986834 q -56.45395,93.955428 -65.86293,110.488358 -9.27457,16.532929 -9.27457,21.9094917 0,6.0486328 5.10773,6.0486328 11.29078,0 41.39957,-42.6092575 0.672,-1.344141 1.6129,-1.344141 0.5377,0.134414 0.5377,0.806485 0,0.806484 -1.3442,2.150625 l -5.7798,7.930429 q -25.40422,35.0820704 -37.50148,35.0820704 -5.77981,0 -9.5434,-4.30125 -3.62918,-4.435664 -3.62918,-11.1563674 0,-7.392773 3.36035,-14.24789 3.49477,-6.989531 23.38805,-40.055391 24.32896,-40.458635 40.99626,-70.164145 4.0324,1.07532 7.124,1.07532 5.1077,0 9.409,-1.61297 z m 44.0878,0 q -56.4539,93.955428 -65.8629,110.488358 -9.2746,16.532929 -9.2746,21.9094917 0,6.0486328 5.1078,6.0486328 11.2907,0 41.3995,-42.6092575 0.6721,-1.344141 1.613,-1.344141 0.5376,0.134414 0.5376,0.806485 0,0.806484 -1.3441,2.150625 l -5.7798,7.930429 q -25.4043,35.0820704 -37.5016,35.0820704 -5.7798,0 -9.5434,-4.30125 -3.6291,-4.435664 -3.6291,-11.1563674 0,-7.392773 3.3603,-14.24789 3.4948,-6.989531 23.3881,-40.055391 24.3289,-40.458635 40.9963,-70.164145 4.0324,1.07532 7.1239,1.07532 5.1077,0 9.409,-1.61297 z m 53.0936,95.030741 q 0,2.150624 -7.9305,10.081054 -11.8284,11.828438 -21.7751,11.828438 -4.1668,0 -7.3927,-1.612969 -17.7427,25.1354294 -33.3347,25.1354294 -8.0649,0 -13.8447,-6.586289 -5.6454,-6.7207034 -5.6454,-15.9952734 0,-20.699766 27.1517,-39.920976 19.0868,-13.575821 31.4529,-13.575821 11.5596,0 11.5596,12.366094 0,15.457617 -16.2641,37.232695 2.6883,1.612969 6.0486,1.612969 6.0487,0 14.1135,-5.645391 8.0648,-5.64539 13.1726,-13.57582 1.4785,-1.881797 2.1506,-1.881797 0.5377,0 0.5377,0.537657 z m -21.7751,-18.011485 q 0,-10.887539 -9.8122,-10.887539 -12.2317,0 -29.84,23.388047 -17.6082,23.388047 -17.6082,39.3833201 0,9.27457027 8.8713,9.27457027 14.5167,0 31.7217,-23.92570337 -3.898,-4.30125 -3.898,-8.871328 0,-6.586289 5.2422,-13.57582 5.2421,-6.989531 10.2154,-6.989531 2.1507,0 2.9572,2.688281 2.1506,-4.704492 2.1506,-10.484297 z m 138.8497,18.011485 q 0,1.478554 -8.6025,10.349882 -11.5596,12.23168 -20.2966,12.23168 -5.9142,0 -9.9466,-6.451875 -11.9628,16.5329295 -19.49,22.9848045 -7.5272,6.3174609 -15.1888,6.3174609 -6.8551,0 -11.4252,-4.5700781 -4.5701,-4.7044921 -4.5701,-11.4251953 0,-5.645391 3.6292,-13.57582 -20.1621,29.5710934 -31.7217,29.5710934 -5.7798,0 -9.8123,-4.7044921 -3.898,-4.7044922 -3.898,-11.2907813 0,-7.661601 7.9305,-21.237422 l 22.3127,-37.770351 q 5.3766,0.940898 7.9304,0.940898 2.2851,0 8.8714,-0.940898 l -30.512,49.867617 q -7.2584,11.694023 -7.2584,17.0705857 0,6.0486328 5.511,6.0486328 6.0486,0 18.0115,-13.4414065 12.0972,-13.441406 23.9257,-33.603515 l 15.0543,-25.941914 q 7.2584,0.67207 9.1402,0.67207 4.7045,0 7.6616,-0.67207 l -28.0925,45.431953 q -9.2746,15.188789 -9.2746,20.9685935 0,6.586289 6.8551,6.586289 13.7102,0 33.3347,-28.8990235 -0.8065,-4.97332 -0.8065,-7.392773 0,-11.962852 7.3928,-24.866602 7.5272,-12.90375 14.5167,-12.90375 3.0915,0 3.0915,4.166836 0,11.290782 -22.0439,41.265117 3.3604,6.048633 8.8713,6.048633 10.0811,0 24.7322,-18.145898 2.6883,-3.225938 3.6292,-3.225938 0.4033,0 0.5377,0.537657 z m 67.6102,0.268828 q 0,0.403242 -2.4194,3.494765 l -5.7798,7.25836 q -27.8237,34.4099994 -47.717,34.4099994 -9.409,0 -15.8609,-6.7207031 -6.3174,-6.8551173 -6.3174,-17.0705863 0,-24.194531 33.7379,-42.609257 17.7426,-9.677813 28.899,-9.677813 4.8389,0 8.1993,2.95711 3.4947,2.822695 3.4947,6.989531 0,9.677812 -12.6349,16.53293 -12.6349,6.720703 -42.206,12.634921 -9.1402,13.844649 -9.1402,23.119219 0,11.55960937 12.5005,11.55960937 21.2375,0 52.0183,-41.53394537 1.613,-2.150625 2.6883,-2.150625 0.5376,0.134414 0.5376,0.806485 z m -11.2908,-24.866602 q 0,-4.30125 -4.7044,-4.30125 -7.124,0 -18.818,9.946641 -11.5596,9.812226 -22.716,25.538672 19.3556,-4.973321 32.797,-13.979063 13.4414,-9.140156 13.4414,-17.205 z m 133.3389,-69.088827 q -50.4053,80.11078 -63.5779,102.423515 -13.307,22.715976 -13.307,28.6301947 0,6.0486328 5.511,6.0486328 12.2317,0 41.5339,-42.6092575 0.8065,-1.344141 1.4786,-1.344141 0.8065,0 0.8065,0.806485 -0.1344,0.403242 -1.3442,2.150625 l -5.7798,7.930429 q -25.4042,35.0820704 -37.5015,35.0820704 -6.183,0 -10.081,-4.5700781 -3.8981,-4.7044921 -3.8981,-11.9628513 0,-7.25836 4.839,-16.801758 -23.5225,33.3346874 -34.9477,33.3346874 -7.124,0 -11.9629,-6.0486328 -4.8389,-6.1830468 -4.8389,-15.4576166 0,-22.178321 27.5549,-40.189805 21.9095,-14.382305 34.41,-14.382305 8.3337,0 8.3337,8.064844 0,3.763594 -2.285,8.468086 l 47.9858,-80.379614 q 4.4356,1.34415 8.7369,1.34415 1.0753,0 8.3337,-0.53766 z m -64.7876,72.180351 q 0,-7.123946 -6.5863,-7.123946 -12.0973,0 -31.9906,24.194531 -19.7588,24.060118 -19.7588,38.8456643 0,9.0057422 7.3928,9.0057422 10.7531,0 36.9638,-37.3671095 13.9791,-20.162109 13.9791,-27.554882 z" /><g
             id="g213"><path
               class="n"
               d="m 816.55,478.98 -0.93,2.02 h -15.2 l -25.87,51.21 c -3.17,6.18 -4.76,11.11 -4.76,14.79 0,4.03 1.82,6.05 5.46,6.05 7.05,0 18.94,-14.22 35.67,-42.68 0.54,-0.89 1.01,-1.34 1.39,-1.34 0.46,0 0.7,0.27 0.7,0.81 -0.08,0.27 -0.46,0.99 -1.16,2.15 l -4.99,7.94 c -14.56,23.42 -25.52,35.13 -32.87,35.13 -3.64,0 -6.68,-1.53 -9.12,-4.57 -2.44,-3.04 -3.66,-6.86 -3.66,-11.42 0,-5.38 2.05,-12.1 6.15,-20.16 L 786.85,481 h -11.83 l 1.16,-2.02 h 11.6 l 13.57,-26.08 c 2.32,0.72 4.52,1.08 6.61,1.08 2.09,0 4.41,-0.36 6.73,-1.08 l -13.34,26.08 z"
               id="path200"
               style="fill:url(#linearGradient56)" /></g></g><line
           class="k"
           x1="978.11798"
           y1="386.13998"
           x2="909.55756"
           y2="386.13998"
           id="line214" /><line
           class="k"
           x1="1422.2133"
           y1="385.24765"
           x2="1351.3743"
           y2="385.24765"
           id="line215" /><line
           class="k"
           x1="1572.2069"
           y1="385.24765"
           x2="1501.368"
           y2="385.24765"
           id="line216" /></g></g></g></svg>
