<?xml version="1.0" encoding="UTF-8" standalone="no"?>
<!-- Created with Inkscape (http://www.inkscape.org/) -->

<svg
   width="169.25514"
   height="33.395828"
   viewBox="0 0 44.782089 8.8359796"
   version="1.1"
   id="svg1"
   xml:space="preserve"
   inkscape:version="1.3.2 (091e20e, 2023-11-25, custom)"
   sodipodi:docname="Download_Button.svg"
   inkscape:export-filename="Ascii_Web_Elements\ThinkerToy_Button.svg"
   inkscape:export-xdpi="96"
   inkscape:export-ydpi="96"
   xmlns:inkscape="http://www.inkscape.org/namespaces/inkscape"
   xmlns:sodipodi="http://sodipodi.sourceforge.net/DTD/sodipodi-0.dtd"
   xmlns:xlink="http://www.w3.org/1999/xlink"
   xmlns="http://www.w3.org/2000/svg"
   xmlns:svg="http://www.w3.org/2000/svg"><sodipodi:namedview
     id="namedview1"
     pagecolor="#505050"
     bordercolor="#eeeeee"
     borderopacity="1"
     inkscape:showpageshadow="0"
     inkscape:pageopacity="0"
     inkscape:pagecheckerboard="0"
     inkscape:deskcolor="#505050"
     inkscape:document-units="mm"
     inkscape:zoom="0.67954657"
     inkscape:cx="-254.58152"
     inkscape:cy="691.63766"
     inkscape:window-width="1350"
     inkscape:window-height="720"
     inkscape:window-x="0"
     inkscape:window-y="0"
     inkscape:window-maximized="0"
     inkscape:current-layer="layer1"><inkscape:page
       x="0"
       y="0"
       width="44.782089"
       height="8.8359795"
       id="page2"
       margin="0"
       bleed="0" /></sodipodi:namedview><defs
     id="defs1"><linearGradient
       id="linearGradient1"
       inkscape:collect="always"><stop
         style="stop-color:#7caee0;stop-opacity:0.98431373;"
         offset="0.29552716"
         id="stop3" /><stop
         style="stop-color:#f7a1cd;stop-opacity:0.96887964;"
         offset="0.81629395"
         id="stop2" /></linearGradient><style
       id="style1">.e{fill:#662d91;}.f{fill:#0071bc;}.g{fill:url(#d);}.h{fill:#93278f;}.i{opacity:.77;}.j{font-family:Consolas, Consolas;font-size:31px;}</style><style
       id="style1-2">.e,.f,.g{font-family:Consolas, Consolas;}.h{fill:#662d91;}.i{fill:#0071bc;}.j{fill:url(#d);}.f,.k{fill:#fff;}.f,.k,.g{font-size:31px;}.l{font-family:Calibri-Light, Calibri;}.m{fill:#93278f;}.n{opacity:.77;}</style><style
       id="style1-6">.e,.f,.g{font-family:Consolas, Consolas;}.h{fill:#662d91;}.i{fill:#0071bc;}.j{fill:url(#d);}.f,.k{fill:#fff;}.f,.k,.g{font-size:31px;}.l{font-family:Calibri-Light, Calibri;}.m{fill:#93278f;}.n{opacity:.77;}</style><style
       id="style1-4">.e{fill:#662d91;}.f{fill:#0071bc;}.g{fill:url(#d);}.h{fill:#93278f;}.i{opacity:.77;}.j{font-family:Consolas, Consolas;font-size:31px;}</style><style
       id="style1-5">.cls-1{fill:#101010;}</style><linearGradient
       inkscape:collect="always"
       xlink:href="#linearGradient1"
       id="linearGradient2"
       x1="365.98355"
       y1="185.56706"
       x2="374.70819"
       y2="185.56706"
       gradientUnits="userSpaceOnUse" /><linearGradient
       inkscape:collect="always"
       xlink:href="#linearGradient1"
       id="linearGradient3"
       gradientUnits="userSpaceOnUse"
       x1="365.98355"
       y1="185.56706"
       x2="374.70819"
       y2="185.56706" /><linearGradient
       inkscape:collect="always"
       xlink:href="#linearGradient1"
       id="linearGradient4"
       gradientUnits="userSpaceOnUse"
       x1="365.98355"
       y1="185.56706"
       x2="374.70819"
       y2="185.56706" /></defs><g
     id="layer1"
     inkscape:groupmode="layer"
     inkscape:label="Layer 1"
     transform="translate(-365.98356,-181.14907)"><g
       id="g3"><text
         xml:space="preserve"
         style="font-style:normal;font-variant:normal;font-weight:normal;font-stretch:normal;font-size:7.15406px;font-family:Consolas, Consolas;-inkscape-font-specification:'Consolas, Consolas, Normal';font-variant-ligatures:normal;font-variant-caps:normal;font-variant-numeric:normal;font-variant-east-asian:normal;letter-spacing:0.0892573px;word-spacing:0.0277006px;fill:#ffffff;fill-opacity:1;stroke:none;stroke-width:24.1962;stroke-dasharray:none;stroke-opacity:0.612903"
         x="378.92917"
         y="187.84891"
         id="Download-3"><tspan
           sodipodi:role="line"
           id="tspan59-0-5-1-0-9-3-4-0-5"
           style="fill:#ffffff;fill-opacity:1;stroke-width:24.1962"
           x="378.92917"
           y="187.84891">DOWNLOAD</tspan></text><g
         id="g1"
         style="fill:url(#linearGradient2);fill-opacity:1;stroke:none;stroke-width:0.2;stroke-dasharray:none;stroke-opacity:1"><path
           d="m 370.59355,187.60887 c -0.0636,0.0704 -0.15342,0.11052 -0.24765,0.11052 -0.0942,0 -0.18407,-0.0401 -0.24764,-0.11052 l -1.78969,-1.98243 c -0.12506,-0.13852 -0.11556,-0.35348 0.0212,-0.48013 0.13678,-0.12665 0.34903,-0.11704 0.47409,0.0215 l 1.20646,1.33641 v -5.0153 c 0,-0.18769 0.15024,-0.33985 0.33556,-0.33985 0.18532,0 0.33557,0.15216 0.33557,0.33985 v 5.0153 l 1.20647,-1.33641 c 0.12505,-0.13852 0.33731,-0.14813 0.47408,-0.0215 0.13678,0.12665 0.14626,0.34161 0.0212,0.48013 z"
           fill="#1c274c"
           id="path1-3"
           style="opacity:0.723457;fill:url(#linearGradient3);fill-opacity:1;stroke:none;stroke-width:0.2;stroke-dasharray:none;stroke-opacity:1" /><path
           d="m 366.65469,186.92642 c 0,-0.18769 -0.15024,-0.33985 -0.33557,-0.33985 -0.18533,0 -0.33556,0.15216 -0.33556,0.33985 v 0.0249 c -1e-5,0.61969 -2e-5,1.11917 0.0521,1.51203 0.0541,0.40786 0.16998,0.75124 0.43929,1.02398 0.26931,0.27278 0.6084,0.3901 1.01112,0.44492 0.3879,0.0528 0.8811,0.0528 1.49299,0.0528 h 2.73364 c 0.61189,0 1.10508,0 1.49299,-0.0528 0.40273,-0.0548 0.74178,-0.17214 1.01113,-0.44492 0.2693,-0.27274 0.38514,-0.61612 0.43927,-1.02398 0.0521,-0.39286 0.0521,-0.89234 0.0521,-1.51203 v -0.0249 c 0,-0.18769 -0.15024,-0.33985 -0.33557,-0.33985 -0.18532,0 -0.33556,0.15216 -0.33556,0.33985 0,0.65042 -7.2e-4,1.10404 -0.0461,1.44633 -0.0442,0.33251 -0.12487,0.50855 -0.24872,0.63397 -0.12385,0.12543 -0.29767,0.20717 -0.62599,0.2519 -0.33798,0.046 -0.78589,0.0467 -1.42812,0.0467 h -2.68452 c -0.64223,0 -1.09015,-7.2e-4 -1.42811,-0.0467 -0.3283,-0.0447 -0.50216,-0.12647 -0.62599,-0.2519 -0.12383,-0.12542 -0.20456,-0.30146 -0.2487,-0.63397 -0.0454,-0.34229 -0.0462,-0.79591 -0.0462,-1.44633 z"
           fill="#1c274c"
           id="path2-4-2"
           style="opacity:0.723457;fill:url(#linearGradient4);fill-opacity:1;stroke:none;stroke-width:0.2;stroke-dasharray:none;stroke-opacity:1" /></g></g></g></svg>
